<svg xmlns="http://www.w3.org/2000/svg" width="24" height="24" viewBox="0 0 24 24" fill="none">
  <path d="M2.0949 13.8793C1.78092 13.2145 1.53271 12.5331 1.35027 11.8351C1.16783 11.137 1.07661 10.4227 1.07661 9.69216C1.07661 8.45773 1.31077 7.29766 1.7791 6.21195C2.24742 5.12625 2.88298 4.18183 3.68578 3.37871C4.48857 2.57558 5.43266 1.93978 6.51803 1.47129C7.60324 1.0028 8.7629 0.768555 9.997 0.768555C11.2309 0.768555 12.3911 1.00272 13.4775 1.47104C14.5637 1.93937 15.5086 2.57492 16.3122 3.37772C17.1158 4.18051 17.7519 5.1246 18.2206 6.20997C18.6894 7.29518 18.9238 8.45484 18.9238 9.68894C18.9238 10.9229 18.6896 12.083 18.2211 13.1694C17.7526 14.2556 17.1168 15.2005 16.3137 16.0041C15.5105 16.8077 14.5661 17.4439 13.4804 17.9125C12.3947 18.3814 11.2347 18.6158 10.0002 18.6158C9.26964 18.6158 8.55534 18.5246 7.85731 18.3421C7.15929 18.1597 6.47787 17.9115 5.81307 17.5975L1.94716 18.729C1.64772 18.8201 1.38613 18.7538 1.16238 18.53C0.938627 18.3063 0.872279 18.0447 0.963333 17.7452L2.0949 13.8793Z" fill="#989AA0"/>
</svg>