<svg xmlns="http://www.w3.org/2000/svg" width="24" height="24" viewBox="0 0 24 24" fill="none">
  <path d="M4.0949 16.0336C3.78092 15.3688 3.53271 14.6874 3.35027 13.9894C3.16783 13.2913 3.07661 12.577 3.07661 11.8465C3.07661 10.612 3.31077 9.45196 3.7791 8.36625C4.24742 7.28055 4.88298 6.33613 5.68578 5.53301C6.48857 4.72988 7.43266 4.09407 8.51803 3.62559C9.60324 3.1571 10.7629 2.92285 11.997 2.92285C13.2309 2.92285 14.3911 3.15701 15.4775 3.62534C16.5637 4.09366 17.5086 4.72922 18.3122 5.53202C19.1158 6.33481 19.7519 7.27889 20.2206 8.36427C20.6894 9.44948 20.9238 10.6091 20.9238 11.8432C20.9238 13.0772 20.6896 14.2373 20.2211 15.3237C19.7526 16.4099 19.1168 17.3548 18.3137 18.1584C17.5105 18.962 16.5661 19.5982 15.4804 20.0668C14.3947 20.5357 13.2347 20.7701 12.0002 20.7701C11.2696 20.7701 10.5553 20.6788 9.85731 20.4964C9.15929 20.314 8.47787 20.0658 7.81307 19.7518L3.94716 20.8833C3.64772 20.9744 3.38613 20.9081 3.16238 20.6843C2.93863 20.4605 2.87228 20.199 2.96333 19.8995L4.0949 16.0336Z" fill="#E5E6E9"/>
</svg>