<svg xmlns="http://www.w3.org/2000/svg" width="28" height="28" viewBox="0 0 28 28" fill="none">
  <mask id="mask0_3380_12051" style="mask-type:alpha" maskUnits="userSpaceOnUse" x="0" y="0" width="28" height="28">
    <rect x="0.583333" y="0.583333" width="26.8333" height="26.8333" fill="#D9D9D9" stroke="#262728" stroke-width="1.16667"/>
  </mask>
  <g mask="url(#mask0_3380_12051)">
    <path d="M25.6195 10.7295C25.5028 10.36 25.1861 10.0913 24.8027 10.041L17.9681 9.05018L14.9175 2.90397C14.7508 2.55132 14.3841 2.33301 14.0007 2.33301C13.6172 2.33301 13.2505 2.55132 13.0838 2.90397L10.0332 9.05018L3.1986 10.041C2.81519 10.0913 2.49847 10.36 2.38178 10.7295C2.26509 11.0989 2.36511 11.5019 2.6485 11.7706L7.58277 16.5566L6.41588 23.3074C6.3492 23.6936 6.5159 24.0799 6.81595 24.2981C6.99933 24.4325 7.19936 24.4997 7.41607 24.4997C7.58277 24.4997 7.74947 24.4661 7.8995 24.3821L14.0007 21.1915L20.1018 24.3821C20.2518 24.4661 20.4186 24.4997 20.5852 24.4997C20.8019 24.4997 21.002 24.4325 21.1853 24.2981C21.5021 24.0631 21.6521 23.6936 21.5854 23.3074L20.4186 16.5566L25.3528 11.7706C25.6362 11.5019 25.7362 11.0989 25.6195 10.7295Z" fill="#E5E6E9"/>
  </g>
</svg>