<svg xmlns="http://www.w3.org/2000/svg" width="20" height="20" viewBox="0 0 20 20" fill="none">
  <mask id="mask0_3380_12039" style="mask-type:alpha" maskUnits="userSpaceOnUse" x="0" y="0" width="20" height="20">
    <rect x="0.416667" y="0.416667" width="19.1667" height="19.1667" fill="#D9D9D9" stroke="#262728" stroke-width="0.833333"/>
  </mask>
  <g mask="url(#mask0_3380_12039)">
    <path d="M17.761 7.83422L17.761 7.83433C17.7805 7.89607 17.7633 7.95818 17.7201 7.99914L17.7201 7.99911L17.7156 8.00351L14.1911 11.422L13.9774 11.6293L14.0281 11.9227L14.8615 16.7446C14.8723 16.8072 14.8535 16.8599 14.7966 16.9027C14.7581 16.9306 14.7311 16.9366 14.7026 16.9366C14.6582 16.9366 14.6385 16.9277 14.6327 16.9245L14.6257 16.9205L14.6186 16.9168L10.2606 14.6378L9.99935 14.5012L9.73811 14.6378L5.38014 16.9168L5.37303 16.9205L5.36603 16.9244C5.36017 16.9277 5.34054 16.9366 5.29608 16.9366C5.26723 16.9366 5.23999 16.9305 5.20061 16.9016L5.19903 16.9005C5.15475 16.8683 5.12681 16.8046 5.13716 16.7446L5.97064 11.9227L6.02135 11.6293L5.80763 11.422L2.28315 8.00351L2.28318 8.00348L2.27856 7.9991C2.23543 7.9582 2.21817 7.89611 2.2377 7.83425L1.70207 7.66507L2.2377 7.83425C2.25603 7.77625 2.30342 7.73864 2.35704 7.7316L2.35705 7.73165L2.36447 7.73057L7.24636 7.02287L7.53898 6.98045L7.67043 6.7156L9.84942 2.32544L9.84951 2.32549L9.85414 2.3157C9.87501 2.27155 9.93151 2.23072 9.99935 2.23072C10.0672 2.23072 10.1237 2.27155 10.1446 2.3157L10.1445 2.31574L10.1493 2.32544L12.3283 6.7156L12.4597 6.98045L12.7523 7.02287L17.6343 7.73057L17.6342 7.73062L17.6417 7.73159C17.6953 7.73864 17.7427 7.77624 17.761 7.83422Z" stroke="#D8DADE" stroke-width="1.12745"/>
  </g>
</svg>