<svg xmlns="http://www.w3.org/2000/svg" width="14" height="14" viewBox="0 0 14 14" fill="none">
  <mask id="mask0_3380_12066" style="mask-type:alpha" maskUnits="userSpaceOnUse" x="0" y="0" width="14" height="14">
    <rect x="0.291667" y="0.291667" width="13.4167" height="13.4167" fill="#D9D9D9" stroke="#262728" stroke-width="0.583333"/>
  </mask>
  <g mask="url(#mask0_3380_12066)">
    <path d="M12.8088 5.36522C12.7504 5.1805 12.5921 5.04616 12.4004 5.02097L8.98306 4.52558L7.45777 1.45247C7.37444 1.27615 7.19106 1.16699 6.99935 1.16699C6.80764 1.16699 6.62427 1.27615 6.54094 1.45247L5.01564 4.52558L1.59832 5.02097C1.40662 5.04616 1.24826 5.1805 1.18991 5.36522C1.13157 5.54994 1.18158 5.75144 1.32327 5.88581L3.79041 8.27878L3.20696 11.6542C3.17362 11.8473 3.25697 12.0404 3.407 12.1496C3.49869 12.2167 3.5987 12.2503 3.70706 12.2503C3.79041 12.2503 3.87376 12.2335 3.94877 12.1915L6.99935 10.5962L10.0499 12.1915C10.1249 12.2335 10.2083 12.2503 10.2916 12.2503C10.4 12.2503 10.5 12.2167 10.5917 12.1496C10.7501 12.032 10.8251 11.8473 10.7917 11.6542L10.2083 8.27878L12.6754 5.88581C12.8171 5.75144 12.8671 5.54994 12.8088 5.36522Z" fill="#E5E6E9"/>
  </g>
</svg>