<svg width="11" height="10" viewBox="0 0 11 10" fill="none" xmlns="http://www.w3.org/2000/svg">
<path d="M10.8958 3.78788C10.8412 3.62121 10.6931 3.5 10.5138 3.47727L7.31761 3.0303L5.89101 0.257576C5.81307 0.098485 5.64156 0 5.46225 0C5.28295 0 5.11144 0.098485 5.03349 0.257576L3.60689 3.0303L0.410685 3.47727C0.231384 3.5 0.0832689 3.62121 0.0286993 3.78788C-0.0258698 3.95454 0.0209036 4.13635 0.153429 4.25758L2.46094 6.41665L1.91524 9.46212C1.88406 9.63635 1.96202 9.81062 2.10233 9.90908C2.18809 9.96969 2.28163 10 2.38298 10C2.46094 10 2.53889 9.98485 2.60905 9.94696L5.46225 8.50758L8.31545 9.94696C8.3856 9.98485 8.46358 10 8.54152 10C8.64285 10 8.73642 9.96969 8.82215 9.90908C8.97028 9.80304 9.04043 9.63635 9.00925 9.46212L8.46358 6.41665L10.7711 4.25758C10.9036 4.13635 10.9504 3.95454 10.8958 3.78788Z" fill="#FF9522"/>
</svg>
