<svg xmlns="http://www.w3.org/2000/svg" width="16" height="16" viewBox="0 0 16 16" fill="none">
  <mask id="mask0_3380_12045" style="mask-type:alpha" maskUnits="userSpaceOnUse" x="0" y="0" width="16" height="16">
    <rect x="0.333333" y="0.333333" width="15.3333" height="15.3333" fill="#D9D9D9" stroke="#262728" stroke-width="0.666667"/>
  </mask>
  <g mask="url(#mask0_3380_12045)">
    <path d="M14.21 6.26688L14.2099 6.26679C14.1953 6.22041 14.1574 6.19032 14.1145 6.18469L14.1086 6.18391L14.1086 6.18387L10.203 5.61771L9.96895 5.58377L9.86379 5.37189L8.1206 1.85977L8.11675 1.85201L8.11682 1.85197C8.10013 1.81666 8.05493 1.78399 8.00065 1.78399C7.94638 1.78399 7.90118 1.81666 7.88449 1.85197L7.88078 1.85981L7.88071 1.85977L6.13752 5.37189L6.03235 5.58377L5.79826 5.61771L1.89275 6.18387L1.88681 6.18473L1.8868 6.18469C1.84391 6.19033 1.80599 6.22041 1.79134 6.26681L1.3613 6.13099L1.79134 6.26682C1.77571 6.3163 1.78952 6.36598 1.82402 6.3987L1.82772 6.4022L1.8277 6.40222L4.64728 9.13705L4.81825 9.30288L4.77768 9.53758L4.1109 13.3951L14.21 6.26688ZM14.21 6.26688C14.2256 6.31627 14.2118 6.36596 14.1773 6.39873L14.1772 6.39871L14.1736 6.40222L11.354 9.13705L11.1831 9.30288L11.2236 9.53758L11.8904 13.3951C11.899 13.4452 11.884 13.4873 11.8385 13.5216C11.8076 13.5439 11.7861 13.5487 11.7633 13.5487C11.7277 13.5487 11.712 13.5416 11.7073 13.539L11.7074 13.5388L11.696 13.5329L8.20964 11.7096L8.00065 11.6003L7.79166 11.7096L4.30529 13.5329L4.3052 13.5327L4.294 13.539C4.28931 13.5416 4.2736 13.5487 4.23803 13.5487C4.21496 13.5487 4.19317 13.5438 4.16166 13.5207L4.16039 13.5198M14.21 6.26688L4.16039 13.5198M4.16039 13.5198C4.12499 13.4941 4.10264 13.4431 4.11089 13.3952L4.16039 13.5198Z" stroke="#D8DADE" stroke-width="0.901961"/>
  </g>
</svg>