<svg xmlns="http://www.w3.org/2000/svg" width="14" height="12" viewBox="0 0 14 12" fill="none">
  <path d="M13.3268 4.54545C13.2633 4.34545 13.0908 4.2 12.8821 4.17273L9.16033 3.63636L7.49917 0.309091C7.40841 0.118182 7.2087 0 6.99992 0C6.79113 0 6.59142 0.118182 6.50067 0.309091L4.83951 3.63636L1.11779 4.17273C0.909009 4.2 0.736541 4.34545 0.672999 4.54545C0.609458 4.74545 0.663922 4.96362 0.818237 5.10909L3.50513 7.69998L2.86972 11.3545C2.83341 11.5636 2.92419 11.7727 3.08757 11.8909C3.18743 11.9636 3.29635 12 3.41436 12C3.50513 12 3.59591 11.9818 3.6776 11.9364L6.99992 10.2091L10.3222 11.9364C10.4039 11.9818 10.4947 12 10.5855 12C10.7035 12 10.8124 11.9636 10.9122 11.8909C11.0847 11.7636 11.1664 11.5636 11.1301 11.3545L10.4947 7.69998L13.1816 5.10909C13.3359 4.96362 13.3904 4.74545 13.3268 4.54545Z" fill="#FF9522"/>
</svg>