<svg xmlns="http://www.w3.org/2000/svg" width="24" height="24" viewBox="0 0 24 24" fill="none">
  <mask id="mask0_6834_19950" style="mask-type:alpha" maskUnits="userSpaceOnUse" x="0" y="0" width="24" height="24">
    <rect x="0.5" y="0.5" width="23" height="23" fill="#D9D9D9" stroke="#262728"/>
  </mask>
  <g mask="url(#mask0_6834_19950)">
    <path d="M12 2.67676C12.0813 2.67676 12.1487 2.72545 12.1738 2.77832L12.1797 2.79004L14.7949 8.05859L14.9521 8.37598L15.3037 8.42676L21.1621 9.27637L21.1709 9.27734C21.235 9.28581 21.2914 9.33107 21.3135 9.40039H21.3145C21.3379 9.47448 21.3165 9.54948 21.2646 9.59863L21.2598 9.60352L17.0303 13.7061L16.7734 13.9551L16.835 14.3066L17.835 20.0928C17.8479 20.1678 17.8249 20.2309 17.7568 20.2822C17.7104 20.316 17.6778 20.3232 17.6436 20.3232C17.5905 20.3232 17.5665 20.3125 17.5596 20.3086L17.5518 20.3047L17.543 20.2998L12.3135 17.5654L12 17.4014L11.6865 17.5654L6.45703 20.2998L6.44824 20.3047L6.44043 20.3086C6.43342 20.3125 6.40954 20.3232 6.35645 20.3232C6.32183 20.3232 6.28847 20.3159 6.24121 20.2812L6.23926 20.2803L6.2041 20.2451C6.17267 20.2039 6.15569 20.1469 6.16504 20.0928L7.16602 14.3066L7.22656 13.9551L6.96973 13.7061L2.74023 9.60352L2.73535 9.59863L2.70215 9.55762C2.67552 9.51245 2.66794 9.45612 2.68555 9.40039C2.70756 9.33091 2.76485 9.28583 2.8291 9.27734L2.83789 9.27637L8.69629 8.42676L9.04785 8.37598L9.20508 8.05859L11.8203 2.79004L11.8262 2.77832C11.8513 2.72545 11.9187 2.67676 12 2.67676Z" stroke="#F28C1D" stroke-width="1.35294"/>
  </g>
</svg>