<svg xmlns="http://www.w3.org/2000/svg" viewBox="0 0 30 30" fill="none">
  <mask id="mask0_3391_31875" style="mask-type:alpha" maskUnits="userSpaceOnUse" x="0" y="0" width="30" height="30">
    <rect x="0.625" y="0.625" width="28.75" height="28.75" fill="currentColor"/>
    <rect x="0.625" y="0.625" width="28.75" height="28.75" fill="currentColor" fill-opacity="0.2"/>
    <rect x="0.625" y="0.625" width="28.75" height="28.75" stroke="currentColor" stroke-width="1.25"/>
  </mask>
  <g mask="url(#mask0_3391_31875)">
    <path d="M7.8125 21.2498V22.1873H9.6875V21.2498H7.8125ZM20.3125 21.2498C20.3125 21.7676 20.7322 22.1873 21.25 22.1873C21.7678 22.1873 22.1875 21.7676 22.1875 21.2498H20.3125ZM3.75 21.5623C3.23223 21.5623 2.8125 21.982 2.8125 22.4998C2.8125 23.0176 3.23223 23.4373 3.75 23.4373V21.5623ZM26.25 23.4373C26.7678 23.4373 27.1875 23.0176 27.1875 22.4998C27.1875 21.982 26.7678 21.5623 26.25 21.5623V23.4373ZM14.0625 11.2498C14.0625 11.7676 14.4822 12.1873 15 12.1873C15.5178 12.1873 15.9375 11.7676 15.9375 11.2498H14.0625ZM15.9375 7.49981C15.9375 6.98204 15.5178 6.56231 15 6.56231C14.4822 6.56231 14.0625 6.98204 14.0625 7.49981H15.9375ZM11.8371 8.0869C11.471 8.45302 11.471 9.04661 11.8371 9.41272C12.2032 9.77884 12.7968 9.77884 13.1629 9.41272L11.8371 8.0869ZM14.1161 7.13369L13.4532 6.47078L13.4532 6.47078L14.1161 7.13369ZM15.8839 7.1337L16.5468 6.47078V6.47078L15.8839 7.1337ZM16.8371 9.41272C17.2032 9.77884 17.7968 9.77884 18.1629 9.41272C18.529 9.04661 18.529 8.45302 18.1629 8.0869L16.8371 9.41272ZM21.2121 12.4619C20.846 12.828 20.846 13.4216 21.2121 13.7877C21.5782 14.1538 22.1718 14.1538 22.5379 13.7877L21.2121 12.4619ZM25.0379 11.2877C25.404 10.9216 25.404 10.328 25.0379 9.9619C24.6718 9.59578 24.0782 9.59578 23.7121 9.9619L25.0379 11.2877ZM7.46209 13.7877C7.8282 14.1538 8.4218 14.1538 8.78791 13.7877C9.15403 13.4216 9.15403 12.828 8.78791 12.4619L7.46209 13.7877ZM6.28791 9.9619C5.9218 9.59578 5.3282 9.59578 4.96209 9.9619C4.59597 10.328 4.59597 10.9216 4.96209 11.2877L6.28791 9.9619ZM9.6875 21.2498C9.6875 18.0774 12.3308 15.9373 15 15.9373V14.0623C11.4192 14.0623 7.8125 16.9222 7.8125 21.2498H9.6875ZM15 15.9373C17.6692 15.9373 20.3125 18.0774 20.3125 21.2498H22.1875C22.1875 16.9222 18.5808 14.0623 15 14.0623V15.9373ZM3.75 23.4373H26.25V21.5623H3.75V23.4373ZM15.9375 11.2498V7.49981H14.0625V11.2498H15.9375ZM13.1629 9.41272L14.779 7.79661L13.4532 6.47078L11.8371 8.0869L13.1629 9.41272ZM15.221 7.79661L16.8371 9.41272L18.1629 8.0869L16.5468 6.47078L15.221 7.79661ZM14.779 7.79661C14.9011 7.67457 15.0989 7.67457 15.221 7.79661L16.5468 6.47078C15.6925 5.61651 14.3075 5.61651 13.4532 6.47078L14.779 7.79661ZM22.5379 13.7877L25.0379 11.2877L23.7121 9.9619L21.2121 12.4619L22.5379 13.7877ZM8.78791 12.4619L6.28791 9.9619L4.96209 11.2877L7.46209 13.7877L8.78791 12.4619Z" fill="currentColor"/>
  </g>
</svg>