<svg width="18" height="18" viewBox="0 0 18 18" fill="none" xmlns="http://www.w3.org/2000/svg">
<g id="Frame 11" clip-path="url(#clip0_190_6398)">
<g id="Group 63">
<g id="Group">
<g id="Group_2">
<path id="Vector" d="M12.9489 4.61523H5.05143C4.68815 4.61523 4.39331 4.91007 4.39331 5.27335C4.39331 5.63663 4.68815 5.93147 5.05143 5.93147H12.9489C13.3121 5.93147 13.607 5.63663 13.607 5.27335C13.607 4.91007 13.3121 4.61523 12.9489 4.61523Z" fill="currentColor"/>
</g>
</g>
<g id="Group_3">
<g id="Group_4">
<path id="Vector_2" d="M10.3164 7.24756H5.05143C4.68815 7.24756 4.39331 7.5424 4.39331 7.90568C4.39331 8.26896 4.68815 8.5638 5.05143 8.5638H10.3164C10.6797 8.5638 10.9745 8.26896 10.9745 7.90568C10.9745 7.5424 10.6797 7.24756 10.3164 7.24756Z" fill="currentColor"/>
</g>
</g>
<g id="Group_5">
<g id="Group_6">
<path id="Vector_3" d="M14.9232 0.666504H3.07706C1.62525 0.666504 0.44458 1.84717 0.44458 3.29898V16.4614C0.44458 16.7167 0.591999 16.9497 0.823657 17.0576C0.911845 17.0984 1.00793 17.1195 1.1027 17.1195C1.25407 17.1195 1.40412 17.0668 1.5239 16.9668L5.28966 13.8289H14.9232C16.375 13.8289 17.5557 12.6482 17.5557 11.1964V3.29898C17.5557 1.84717 16.375 0.666504 14.9232 0.666504ZM16.2395 11.1964C16.2395 11.9217 15.6498 12.5127 14.9232 12.5127H5.05142C4.89742 12.5127 4.74868 12.5666 4.63022 12.6653L1.76082 15.0569V3.29898C1.76082 2.57373 2.35049 1.98274 3.07706 1.98274H14.9232C15.6498 1.98274 16.2395 2.57373 16.2395 3.29898V11.1964Z" fill="currentColor"/>
</g>
</g>
</g>
</g>
<defs>
<clipPath id="clip0_190_6398">
<rect width="18" height="18" fill="currentColor"/>
</clipPath>
</defs>
</svg>
