<svg viewBox="0 0 172 172" fill="none" xmlns="http://www.w3.org/2000/svg">
<g id="Group 130">
<circle id="Ellipse 2" cx="86.4805" cy="85.9902" r="85.5" fill="#FF9522"/>
<g id="Group 7">
<g id="Group" filter="url(#filter0_d_1658_8196)">
<path id="Vector" d="M129.475 73.1397C128.921 71.786 128.115 70.5521 127.107 69.5241C126.083 68.4791 124.891 67.6567 123.548 67.1084C122.993 66.8683 122.439 66.6969 121.869 66.5601C122.02 65.8404 122.087 65.0866 122.087 64.3323C122.087 62.8588 121.801 61.4199 121.247 60.066C120.693 58.7125 119.887 57.4788 118.879 56.4507C117.855 55.4056 116.663 54.5831 115.32 54.0348C113.993 53.4694 112.566 53.1781 111.122 53.1781C109.678 53.1781 108.267 53.4694 106.924 54.0348C106.739 54.1205 106.554 54.2062 106.37 54.2918C106.353 52.8697 106.068 51.4647 105.547 50.1453C104.993 48.7917 104.187 47.5581 103.179 46.53C102.155 45.4677 100.946 44.6452 99.6193 44.097C98.2925 43.5315 96.8654 43.2402 95.4214 43.2402C93.977 43.2402 92.5669 43.5315 91.2232 44.097C89.8969 44.6624 88.6879 45.4848 87.6634 46.5129C87.21 46.9755 86.807 47.4552 86.4543 47.9864C86.0852 47.4552 85.6822 46.9755 85.2453 46.5129C84.2547 45.4677 83.0456 44.6452 81.7193 44.097C80.3926 43.5315 78.9655 43.2402 77.5211 43.2402C76.0771 43.2402 74.6665 43.5315 73.3233 44.097C71.9966 44.6624 70.7875 45.4848 69.7635 46.5129C68.739 47.5409 67.933 48.7746 67.3957 50.1282C66.8585 51.4475 66.5897 52.8526 66.5728 54.2747C65.1123 53.555 63.4833 53.1609 61.8208 53.1609C60.3768 53.1609 58.9663 53.4522 57.623 54.0177C56.3132 54.5831 55.1042 55.4056 54.0797 56.4336C53.0556 57.4788 52.2496 58.6953 51.7124 60.0489C51.1582 61.4024 50.8725 62.8588 50.8725 64.3153C50.8725 65.0691 50.9398 65.8058 51.0909 66.5426C50.5199 66.6799 49.9492 66.8683 49.4116 67.0909C48.0852 67.6567 46.8762 68.4791 45.8517 69.5071C44.8277 70.5521 44.0216 71.7689 43.484 73.1222C42.9303 74.4759 42.6445 75.9324 42.6445 77.3888C42.6445 80.3529 43.8032 83.1971 45.8517 85.2876C47.9007 87.378 50.6879 88.5603 53.5929 88.5603C56.4978 88.5603 59.2855 87.378 61.334 85.2876C61.502 85.1162 61.6697 84.9448 61.8208 84.7563V85.6304H111.122V84.7563C111.273 84.9448 111.441 85.1162 111.609 85.2876C113.657 87.378 116.445 88.5603 119.35 88.5603C122.255 88.5603 125.042 87.378 127.091 85.2876C129.139 83.1971 130.298 80.3529 130.298 77.3888C130.315 75.9494 130.029 74.51 129.475 73.1397Z" fill="white"/>
<path id="Vector_2" d="M108.125 128.74C108.696 128.74 109.082 128.174 108.914 127.609L108.259 125.536C108.142 125.159 108.293 124.73 108.629 124.542C109.065 124.285 109.72 123.908 110.543 123.394C112.004 122.503 113.985 121.218 116.118 119.641C116.622 119.281 117.109 118.922 117.596 118.545C118.57 117.808 119.543 116.985 120.518 116.095C120.736 115.906 120.937 115.718 121.156 115.529H121.122C126.781 110.063 131.902 101.908 131.902 90.736V79.53C131.902 78.6734 131.164 78.0224 130.341 78.1422C124.866 78.9992 105.808 81.7577 86.6316 81.7577C67.4219 81.7577 48.0944 78.9992 42.5868 78.1422C41.7973 78.0224 41.0586 78.6734 41.0586 79.53V90.736C41.0586 101.873 46.1297 110.012 51.8727 115.529H51.8223C52.1915 115.872 52.5611 116.198 52.9302 116.506C54.2904 117.722 55.6675 118.819 57.0108 119.761C58.757 121.047 60.386 122.109 61.6958 122.948C62.8879 123.685 63.8282 124.234 64.3823 124.542C64.7184 124.73 64.8861 125.141 64.7688 125.536L64.1474 127.609C63.9793 128.157 64.3658 128.74 64.9365 128.74H108.125Z" fill="url(#paint0_linear_1658_8196)"/>
</g>
</g>
</g>
<defs>
<filter id="filter0_d_1658_8196" x="31.0586" y="37.2402" width="110.844" height="105.5" filterUnits="userSpaceOnUse" color-interpolation-filters="sRGB">
<feFlood flood-opacity="0" result="BackgroundImageFix"/>
<feColorMatrix in="SourceAlpha" type="matrix" values="0 0 0 0 0 0 0 0 0 0 0 0 0 0 0 0 0 0 127 0" result="hardAlpha"/>
<feOffset dy="4"/>
<feGaussianBlur stdDeviation="5"/>
<feColorMatrix type="matrix" values="0 0 0 0 0 0 0 0 0 0 0 0 0 0 0 0 0 0 0.1 0"/>
<feBlend mode="normal" in2="BackgroundImageFix" result="effect1_dropShadow_1658_8196"/>
<feBlend mode="normal" in="SourceGraphic" in2="effect1_dropShadow_1658_8196" result="shape"/>
</filter>
<linearGradient id="paint0_linear_1658_8196" x1="51.7761" y1="80.1273" x2="121.766" y2="126.976" gradientUnits="userSpaceOnUse">
<stop stop-color="#F7ECD1"/>
<stop offset="1" stop-color="#F4B59E"/>
</linearGradient>
</defs>
</svg>
