<svg xmlns="http://www.w3.org/2000/svg" viewBox="0 0 31 30" fill="none">
  <mask id="mask0_3380_12100" style="mask-type:alpha" maskUnits="userSpaceOnUse" x="0" y="0" width="31" height="30">
    <rect x="0.595703" width="30" height="30" fill="currentColor"/>
  </mask>
  <g mask="url(#mask0_3380_12100)">
    <path d="M15.6305 25.6249C12.6691 25.6249 10.1579 24.5945 8.09711 22.5337C6.03628 20.4726 5.00586 17.9614 5.00586 14.9999C5.00586 12.5337 5.76898 10.3414 7.29523 8.42304C8.82169 6.5047 10.8549 5.26835 13.3949 4.71397C13.6578 4.64814 13.8894 4.6545 14.0896 4.73304C14.29 4.81158 14.4527 4.92856 14.5777 5.08397C14.7027 5.2396 14.7765 5.42835 14.799 5.65022C14.8213 5.8721 14.7692 6.09366 14.6427 6.31491C14.3846 6.7845 14.193 7.27231 14.068 7.77835C13.943 8.28439 13.8805 8.81658 13.8805 9.37491C13.8805 11.4235 14.5976 13.1648 16.0318 14.599C17.4658 16.0329 19.207 16.7499 21.2555 16.7499C21.8695 16.7499 22.4561 16.6722 23.0152 16.5168C23.5746 16.3614 24.0642 16.1811 24.484 15.9759C24.6892 15.8863 24.8895 15.8546 25.0849 15.8808C25.2805 15.9073 25.4474 15.9726 25.5856 16.0768C25.7391 16.181 25.853 16.3232 25.9274 16.5037C26.002 16.6839 26.0104 16.8957 25.9527 17.1393C25.5088 19.5976 24.3128 21.6265 22.3649 23.2258C20.417 24.8252 18.1722 25.6249 15.6305 25.6249ZM15.6305 23.7499C17.4639 23.7499 19.1097 23.2447 20.568 22.2343C22.0264 21.2239 23.0889 19.9062 23.7555 18.2812C23.3389 18.3853 22.9222 18.4687 22.5055 18.5312C22.0889 18.5937 21.6722 18.6249 21.2555 18.6249C18.693 18.6249 16.5108 17.7239 14.7087 15.9218C12.9066 14.1197 12.0055 11.9374 12.0055 9.37491C12.0055 8.95825 12.0368 8.54158 12.0993 8.12491C12.1618 7.70825 12.2451 7.29158 12.3493 6.87491C10.7243 7.54158 9.40659 8.60408 8.39617 10.0624C7.38576 11.5207 6.88055 13.1666 6.88055 14.9999C6.88055 17.4166 7.73471 19.4791 9.44305 21.1874C11.1514 22.8957 13.2139 23.7499 15.6305 23.7499Z" fill="currentColor"/>
  </g>
</svg>