<svg width="23" height="22" viewBox="0 0 23 22" fill="none" xmlns="http://www.w3.org/2000/svg">
<path d="M22.3541 8.44954C22.2421 8.11224 21.938 7.86693 21.57 7.82094L15.0087 6.91637L12.0802 1.30497C11.9202 0.983004 11.5681 0.783691 11.2 0.783691C10.8319 0.783691 10.4798 0.983004 10.3198 1.30497L7.39128 6.91637L0.830032 7.82094C0.46196 7.86693 0.157906 8.11224 0.045884 8.44954C-0.0661368 8.78682 0.0298809 9.15476 0.301933 9.40011L5.03883 13.7696L3.91862 19.933C3.85461 20.2856 4.01464 20.6383 4.30269 20.8375C4.47873 20.9602 4.67076 21.0215 4.8788 21.0215C5.03883 21.0215 5.19887 20.9909 5.34289 20.9142L11.2 18.0012L17.0571 20.9142C17.2011 20.9909 17.3612 21.0215 17.5212 21.0215C17.7292 21.0215 17.9213 20.9602 18.0973 20.8375C18.4014 20.6229 18.5454 20.2856 18.4814 19.933L17.3612 13.7696L22.0981 9.40011C22.3701 9.15476 22.4662 8.78682 22.3541 8.44954Z" fill="currentColor"/>
</svg>
