<svg width="18" height="20" viewBox="0 0 18 20" fill="none" xmlns="http://www.w3.org/2000/svg">
<path d="M8.99609 0.593806C9.02734 0.7774 9.625 4.28521 9.625 5.62506C9.625 7.66802 8.53906 9.12506 6.93359 9.71099L7.4375 19.0118C7.46484 19.5469 7.03906 20.0001 6.5 20.0001H4C3.46484 20.0001 3.03516 19.5508 3.0625 19.0118L3.56641 9.71099C1.95703 9.12506 0.875 7.66412 0.875 5.62506C0.875 4.28131 1.47266 0.7774 1.50391 0.593806C1.62891 -0.199163 3.27344 -0.210882 3.375 0.636775V6.1524C3.42578 6.28521 3.96484 6.2774 4 6.1524C4.05469 5.16412 4.30859 0.7149 4.3125 0.613337C4.44141 -0.199163 6.05859 -0.199163 6.18359 0.613337C6.19141 0.718806 6.44141 5.16412 6.49609 6.1524C6.53125 6.2774 7.07422 6.28521 7.12109 6.1524V0.636775C7.22266 -0.206975 8.87109 -0.199163 8.99609 0.593806ZM13.6523 11.754L13.0664 18.9844C13.0195 19.5313 13.4531 20.0001 14 20.0001H16.1875C16.707 20.0001 17.125 19.5821 17.125 19.0626V0.937556C17.125 0.421931 16.707 5.58303e-05 16.1875 5.58303e-05C12.9648 5.58303e-05 7.53906 6.97271 13.6523 11.754Z" fill="currentColor"/>
</svg>
