<svg width="22" height="21" viewBox="0 0 22 21" fill="none" xmlns="http://www.w3.org/2000/svg">
<path d="M18.9004 0C20.2257 0.000211707 21.2998 1.07504 21.2998 2.40039V18.4004C21.2996 19.7256 20.2256 20.7996 18.9004 20.7998H2.90039C1.57504 20.7998 0.500212 19.7257 0.5 18.4004V2.40039C0.5 1.07491 1.57491 0 2.90039 0H18.9004ZM4.2998 15.3887C3.96874 15.3889 3.70041 15.6572 3.7002 15.9883C3.7002 16.3195 3.96861 16.5887 4.2998 16.5889H17.5C17.8314 16.5889 18.1006 16.3197 18.1006 15.9883C18.1004 15.6571 17.8312 15.3887 17.5 15.3887H4.2998ZM4.2998 11.0586C3.96874 11.0588 3.70041 11.3271 3.7002 11.6582C3.7002 11.9894 3.96861 12.2586 4.2998 12.2588H17.5C17.8314 12.2588 18.1006 11.9896 18.1006 11.6582C18.1004 11.327 17.8312 11.0586 17.5 11.0586H4.2998ZM4.2998 7.5293C3.96874 7.52951 3.70041 7.79784 3.7002 8.12891C3.7002 8.46015 3.96861 8.72928 4.2998 8.72949H17.5C17.8314 8.72949 18.1006 8.46028 18.1006 8.12891C18.1004 7.79771 17.8312 7.5293 17.5 7.5293H4.2998ZM4.2998 4C3.96874 4.00021 3.70041 4.26855 3.7002 4.59961C3.7002 4.93085 3.96861 5.19998 4.2998 5.2002H13.5C13.8314 5.2002 14.1006 4.93098 14.1006 4.59961C14.1004 4.26842 13.8312 4 13.5 4H4.2998Z" fill="currentColor"/>
</svg>
