<svg width="22" height="24" viewBox="0 0 22 24" fill="none" xmlns="http://www.w3.org/2000/svg">
<path d="M13.7481 3.07541C13.8417 3.38748 14.0831 3.63057 14.3853 3.75229C15.1601 4.06432 15.8774 4.48836 16.5173 5.00486C16.7741 5.2121 17.1091 5.30391 17.4305 5.2291L19.792 4.67942C20.2221 4.5793 20.6669 4.77315 20.8864 5.15634L21.7102 6.59451C21.9297 6.97776 21.8718 7.45963 21.5678 7.77998L19.8446 9.59553C19.6233 9.82866 19.5315 10.1535 19.5726 10.4722C19.6175 10.82 19.6416 11.1743 19.6416 11.5342C19.6416 11.9531 19.6101 12.3649 19.5503 12.7673C19.5023 13.0904 19.591 13.4224 19.8143 13.6608L21.5423 15.5067C21.8441 15.829 21.8987 16.3112 21.6767 16.6929L20.8429 18.1263C20.6208 18.5081 20.1746 18.6989 19.7452 18.5959L17.241 17.9949C16.9273 17.9197 16.599 18.0035 16.3427 18.1995C15.7479 18.6544 15.0905 19.0311 14.3854 19.3151C14.0831 19.4368 13.8417 19.6799 13.7481 19.992L13.0389 22.3566C12.9121 22.7796 12.5227 23.0693 12.0811 23.0693H10.4236C9.98203 23.0693 9.59275 22.7798 9.4658 22.3569L8.75582 19.9918C8.66218 19.6798 8.42089 19.4368 8.11878 19.3151C7.40217 19.0264 6.73481 18.6419 6.13231 18.1769C5.87755 17.9803 5.55054 17.8949 5.23713 17.968L2.78833 18.539C2.35813 18.6393 1.91308 18.4455 1.69352 18.0621L0.869718 16.624C0.650263 16.2409 0.708037 15.7592 1.01187 15.4388L2.68669 13.6729C2.91337 13.4338 3.00368 13.0991 2.95537 12.7732C2.89542 12.3689 2.86425 11.9551 2.86425 11.5342C2.86427 11.133 2.89209 10.7385 2.94633 10.3523C2.99146 10.0311 2.90239 9.70205 2.68067 9.46529L1.03801 7.7112C0.736083 7.38879 0.681447 6.90649 0.903601 6.52471L1.73715 5.09224C1.95924 4.71058 2.40537 4.51976 2.83476 4.62278L5.13327 5.17422C5.45334 5.25101 5.78815 5.1621 6.04611 4.95767C6.67093 4.46251 7.36793 4.05477 8.11882 3.75227C8.4209 3.63056 8.6622 3.3876 8.75588 3.07568L9.46573 0.712339C9.59272 0.289512 9.98197 0 10.4235 0H12.0812C12.5228 0 12.9121 0.289632 13.039 0.71258L13.7481 3.07541ZM11.2529 7.34082C8.93645 7.34083 7.05859 9.21868 7.05859 11.5352C7.05884 13.8514 8.93661 15.7295 11.2529 15.7295C13.5693 15.7295 15.447 13.8514 15.4473 11.5352C15.4473 9.21867 13.5694 7.34082 11.2529 7.34082Z" fill="currentColor"/>
</svg>
