<svg width="24" height="19" viewBox="0 0 24 19" fill="none" xmlns="http://www.w3.org/2000/svg">
<path d="M12.123 15.791C13.5293 15.791 14.7246 15.2988 15.709 14.3145C16.6934 13.3301 17.1855 12.1348 17.1855 10.7285C17.1855 9.32227 16.6934 8.12695 15.709 7.14258C14.7246 6.1582 13.5293 5.66602 12.123 5.66602C10.7168 5.66602 9.52148 6.1582 8.53711 7.14258C7.55273 8.12695 7.06055 9.32227 7.06055 10.7285C7.06055 12.1348 7.55273 13.3301 8.53711 14.3145C9.52148 15.2988 10.7168 15.791 12.123 15.791ZM12.123 13.541C11.3355 13.541 10.6699 13.2691 10.1262 12.7254C9.58242 12.1816 9.31055 11.516 9.31055 10.7285C9.31055 9.94102 9.58242 9.27539 10.1262 8.73164C10.6699 8.18789 11.3355 7.91602 12.123 7.91602C12.9105 7.91602 13.5762 8.18789 14.1199 8.73164C14.6637 9.27539 14.9355 9.94102 14.9355 10.7285C14.9355 11.516 14.6637 12.1816 14.1199 12.7254C13.5762 13.2691 12.9105 13.541 12.123 13.541ZM3.12305 18.6035C2.5043 18.6035 1.97461 18.3832 1.53398 17.9426C1.09336 17.502 0.873047 16.9723 0.873047 16.3535V5.10352C0.873047 4.48477 1.09336 3.95508 1.53398 3.51445C1.97461 3.07383 2.5043 2.85352 3.12305 2.85352H6.6668L8.07305 1.33477C8.2793 1.10977 8.52773 0.931641 8.81836 0.800391C9.10898 0.669141 9.41367 0.603516 9.73242 0.603516H14.5137C14.8324 0.603516 15.1371 0.669141 15.4277 0.800391C15.7184 0.931641 15.9668 1.10977 16.173 1.33477L17.5793 2.85352H21.123C21.7418 2.85352 22.2715 3.07383 22.7121 3.51445C23.1527 3.95508 23.373 4.48477 23.373 5.10352V16.3535C23.373 16.9723 23.1527 17.502 22.7121 17.9426C22.2715 18.3832 21.7418 18.6035 21.123 18.6035H3.12305Z" fill="currentColor"/>
</svg>
