<svg xmlns="http://www.w3.org/2000/svg" viewBox="0 0 24 24" fill="none">
  <mask id="mask0_3380_12042" style="mask-type:alpha" maskUnits="userSpaceOnUse" x="0" y="0" width="24" height="24">
    <rect x="0.5" y="0.5" width="23" height="23" fill="none" stroke="currentColor"/>
  </mask>
  <g mask="url(#mask0_3380_12042)">
    <path d="M21.3139 9.40067L21.314 9.40081C21.3374 9.4749 21.3167 9.54943 21.2649 9.59858L21.2649 9.59855L21.2595 9.60382L17.0301 13.7061L16.7736 13.9548L16.8345 14.3069L17.8346 20.0931C17.8346 20.0931 17.8346 20.0932 17.8346 20.0932C17.8476 20.1684 17.825 20.2315 17.7567 20.2829C17.7104 20.3164 17.6781 20.3235 17.6439 20.3235C17.5906 20.3235 17.567 20.3129 17.56 20.309L17.5516 20.3043L17.5431 20.2998L12.3135 17.5649L12 17.401L11.6865 17.5649L6.45695 20.2998L6.44842 20.3042L6.44002 20.3089C6.43299 20.3129 6.40943 20.3235 6.35607 20.3235C6.32146 20.3235 6.28877 20.3162 6.24152 20.2816L6.23961 20.2802C6.18648 20.2415 6.15295 20.1651 6.16538 20.0931L7.16554 14.3069L7.2264 13.9548L6.96994 13.7061L2.74057 9.60382L2.7406 9.60379L2.73506 9.59853C2.6833 9.54945 2.66258 9.47494 2.68603 9.40071L2.04097 9.19697L2.68603 9.40071C2.70801 9.3311 2.76488 9.28598 2.82923 9.27752L2.82924 9.27758L2.83815 9.27629L8.69641 8.42705L9.04755 8.37615L9.2053 8.05833L11.8201 2.79014L11.8202 2.7902L11.8258 2.77844C11.8508 2.72547 11.9186 2.67647 12 2.67647C12.0814 2.67647 12.1492 2.72547 12.1743 2.77845L12.1741 2.7785L12.1799 2.79014L14.7947 8.05833L14.9525 8.37615L15.3036 8.42705L21.1619 9.27629L21.1619 9.27635L21.1708 9.27752C21.2351 9.28597 21.292 9.3311 21.3139 9.40067Z" stroke="currentColor" stroke-width="1.35294"/>
  </g>
</svg>