<svg width="10" height="10" viewBox="0 0 10 10" fill="none" xmlns="http://www.w3.org/2000/svg">
<path id="close_small" d="M4.575 6.30547L1.675 9.20547C1.49167 9.3888 1.25833 9.48047 0.975 9.48047C0.691667 9.48047 0.458333 9.3888 0.275 9.20547C0.0916667 9.02214 0 8.7888 0 8.50547C0 8.22214 0.0916667 7.9888 0.275 7.80547L3.175 4.90547L0.275 2.03047C0.0916667 1.84714 0 1.6138 0 1.33047C0 1.04714 0.0916667 0.813802 0.275 0.630469C0.458333 0.447135 0.691667 0.355469 0.975 0.355469C1.25833 0.355469 1.49167 0.447135 1.675 0.630469L4.575 3.53047L7.45 0.630469C7.63333 0.447135 7.86667 0.355469 8.15 0.355469C8.43333 0.355469 8.66667 0.447135 8.85 0.630469C9.05 0.830469 9.15 1.06797 9.15 1.34297C9.15 1.61797 9.05 1.84714 8.85 2.03047L5.95 4.90547L8.85 7.80547C9.03333 7.9888 9.125 8.22214 9.125 8.50547C9.125 8.7888 9.03333 9.02214 8.85 9.20547C8.65 9.40547 8.4125 9.50547 8.1375 9.50547C7.8625 9.50547 7.63333 9.40547 7.45 9.20547L4.575 6.30547Z" fill="#ADADAD"/>
</svg>
