<svg width="23" height="19" viewBox="0 0 23 19" fill="none" xmlns="http://www.w3.org/2000/svg">
<path id="photo_camera" d="M11.6035 15.2832C13.0098 15.2832 14.2051 14.791 15.1895 13.8066C16.1738 12.8223 16.666 11.627 16.666 10.2207C16.666 8.81445 16.1738 7.61914 15.1895 6.63477C14.2051 5.65039 13.0098 5.1582 11.6035 5.1582C10.1973 5.1582 9.00195 5.65039 8.01758 6.63477C7.0332 7.61914 6.54102 8.81445 6.54102 10.2207C6.54102 11.627 7.0332 12.8223 8.01758 13.8066C9.00195 14.791 10.1973 15.2832 11.6035 15.2832ZM11.6035 13.0332C10.816 13.0332 10.1504 12.7613 9.60664 12.2176C9.06289 11.6738 8.79102 11.0082 8.79102 10.2207C8.79102 9.4332 9.06289 8.76758 9.60664 8.22383C10.1504 7.68008 10.816 7.4082 11.6035 7.4082C12.391 7.4082 13.0566 7.68008 13.6004 8.22383C14.1441 8.76758 14.416 9.4332 14.416 10.2207C14.416 11.0082 14.1441 11.6738 13.6004 12.2176C13.0566 12.7613 12.391 13.0332 11.6035 13.0332ZM2.60352 18.0957C1.98477 18.0957 1.45508 17.8754 1.01445 17.4348C0.573828 16.9941 0.353516 16.4645 0.353516 15.8457V4.5957C0.353516 3.97695 0.573828 3.44727 1.01445 3.00664C1.45508 2.56602 1.98477 2.3457 2.60352 2.3457H6.14727L7.55352 0.826953C7.75977 0.601953 8.0082 0.423828 8.29883 0.292578C8.58945 0.161328 8.89414 0.0957031 9.21289 0.0957031H13.9941C14.3129 0.0957031 14.6176 0.161328 14.9082 0.292578C15.1988 0.423828 15.4473 0.601953 15.6535 0.826953L17.0598 2.3457H20.6035C21.2223 2.3457 21.752 2.56602 22.1926 3.00664C22.6332 3.44727 22.8535 3.97695 22.8535 4.5957V15.8457C22.8535 16.4645 22.6332 16.9941 22.1926 17.4348C21.752 17.8754 21.2223 18.0957 20.6035 18.0957H2.60352Z" fill="#ADADAD"/>
</svg>
