<svg width="31" height="20" viewBox="0 0 31 20" fill="none" xmlns="http://www.w3.org/2000/svg">
    <path d="M15.3887 7.92211C15.4742 7.92763 15.5599 7.91401 15.6401 7.88218C15.7202 7.85035 15.793 7.80103 15.8536 7.73748C15.9143 7.67393 15.9613 7.5976 15.9917 7.51354C16.022 7.42949 16.035 7.33964 16.0297 7.24994V2.8143L16.8627 3.68776C16.9205 3.75144 16.9901 3.80214 17.0671 3.83679C17.1442 3.87142 17.2272 3.88929 17.311 3.88929C17.3948 3.88929 17.4777 3.87142 17.5549 3.83679C17.6318 3.80214 17.7014 3.75144 17.7592 3.68776C17.8199 3.62716 17.8682 3.55426 17.9013 3.47348C17.9344 3.39267 17.9513 3.3057 17.9513 3.2178C17.9513 3.1299 17.9344 3.04289 17.9013 2.9621C17.8682 2.88132 17.8199 2.8084 17.7592 2.7478L15.836 0.731285C15.7726 0.664786 15.7075 0.596496 15.6441 0.596496C15.4788 0.528382 15.2951 0.528382 15.1298 0.596496C15.0664 0.662994 15.0013 0.662989 14.9379 0.731285L13.0096 2.7478C12.9489 2.8084 12.9005 2.88132 12.8675 2.9621C12.8344 3.04289 12.8174 3.1299 12.8174 3.2178C12.8174 3.3057 12.8344 3.39267 12.8675 3.47348C12.9005 3.55426 12.9489 3.62716 13.0096 3.68776C13.0674 3.75144 13.1369 3.80214 13.214 3.83679C13.291 3.87142 13.374 3.88929 13.4578 3.88929C13.5416 3.88929 13.6246 3.87142 13.7016 3.83679C13.7787 3.80214 13.8482 3.75144 13.906 3.68776L14.739 2.8143V7.24994C14.7336 7.34045 14.7468 7.43112 14.7777 7.51584C14.8086 7.60057 14.8564 7.67736 14.9179 7.74108C14.9795 7.80477 15.0534 7.85389 15.1346 7.88513C15.2158 7.91634 15.3024 7.92896 15.3887 7.92211Z" fill="#919191"/>
    <path d="M30.1226 18.0011H23.6538C23.5033 15.8097 22.5667 13.7595 21.0328 12.2628C19.4989 10.7661 17.4813 9.93408 15.3861 9.93408C13.2908 9.93408 11.2732 10.7661 9.73933 12.2628C8.20541 13.7595 7.26898 15.8097 7.11842 18.0011H0.641054C0.471036 18.0011 0.307981 18.0719 0.187761 18.198C0.0675405 18.324 0 18.495 0 18.6732C0 18.8515 0.0675405 19.0224 0.187761 19.1486C0.307981 19.2746 0.471036 19.3454 0.641054 19.3454H30.1226C30.2926 19.3454 30.4556 19.2746 30.5759 19.1486C30.6961 19.0224 30.7636 18.8515 30.7636 18.6732C30.7636 18.495 30.6961 18.324 30.5759 18.198C30.4556 18.0719 30.2926 18.0011 30.1226 18.0011ZM8.39538 18.0011C8.54793 16.1687 9.34993 14.4629 10.6431 13.2201C11.9363 11.9773 13.6268 11.288 15.381 11.288C17.1351 11.288 18.8257 11.9773 20.1187 13.2201C21.412 14.4629 22.214 16.1687 22.3665 18.0011H8.39538Z" fill="#919191"/>
    <path d="M7.24351 11.0799C7.30131 11.1436 7.37084 11.1943 7.44789 11.2289C7.52495 11.2635 7.60791 11.2814 7.69175 11.2814C7.77558 11.2814 7.85852 11.2635 7.93559 11.2289C8.01263 11.1943 8.08217 11.1436 8.13997 11.0799C8.2007 11.0193 8.24903 10.9464 8.28208 10.8656C8.31511 10.7848 8.33215 10.6978 8.33215 10.6099C8.33215 10.522 8.31511 10.435 8.28208 10.3542C8.24903 10.2734 8.2007 10.2005 8.13997 10.1399L4.29535 6.10869C4.17527 5.99043 4.016 5.92584 3.85126 5.92855C3.68654 5.93126 3.5293 6.00109 3.41281 6.12325C3.29631 6.24539 3.22972 6.41029 3.22713 6.583C3.22454 6.75572 3.28614 6.92272 3.39893 7.04865L7.24351 11.0799Z" fill="#919191"/>
    <path d="M26.47 6.10684L22.6254 10.1381C22.5647 10.1987 22.5164 10.2716 22.4833 10.3524C22.4502 10.4332 22.4332 10.5202 22.4332 10.6081C22.4332 10.696 22.4502 10.783 22.4833 10.8637C22.5164 10.9445 22.5647 11.0174 22.6254 11.078C22.6831 11.1417 22.7527 11.1924 22.8297 11.2271C22.9068 11.2617 22.9898 11.2796 23.0736 11.2796C23.1574 11.2796 23.2404 11.2617 23.3175 11.2271C23.3945 11.1924 23.4641 11.1417 23.5218 11.078L27.3664 7.0468C27.4792 6.92087 27.5407 6.75387 27.5382 6.58115C27.5356 6.40844 27.4691 6.24356 27.3525 6.1214C27.236 5.99926 27.0788 5.92943 26.9141 5.92672C26.7494 5.92399 26.5901 5.9886 26.47 6.10684Z" fill="#919191"/>
</svg>
