<svg xmlns="http://www.w3.org/2000/svg" width="20" height="20" viewBox="0 0 20 20" fill="none">
  <path fill-rule="evenodd" clip-rule="evenodd" d="M19.0618 1.13014C19.6955 1.76557 19.6942 2.79446 19.0588 3.42823L12.1569 10.312L19.0254 17.1804C19.66 17.815 19.66 18.8439 19.0254 19.4785C18.3908 20.1131 17.3619 20.1131 16.7273 19.4785L9.85583 12.6071L2.951 19.4938C2.31557 20.1276 1.28667 20.1262 0.652903 19.4908C0.0191339 18.8554 0.0204826 17.8265 0.655915 17.1927L7.55773 10.309L0.64062 3.39185C0.0060178 2.75725 0.00601776 1.72836 0.64062 1.09376C1.27522 0.459153 2.30411 0.459153 2.93872 1.09376L9.85884 8.01388L16.7637 1.12712C17.3991 0.493354 18.428 0.494702 19.0618 1.13014Z" fill="white"/>
</svg>