<svg xmlns="http://www.w3.org/2000/svg" width="32" height="32" viewBox="0 0 32 32" fill="none">
  <mask id="mask0_4734_18095" style="mask-type:alpha" maskUnits="userSpaceOnUse" x="0" y="0" width="32" height="32">
    <rect width="32" height="32" fill="#D9D9D9"/>
  </mask>
  <g mask="url(#mask0_4734_18095)">
    <path fill-rule="evenodd" clip-rule="evenodd" d="M9.51084 8.3559C9.19191 8.03697 8.67482 8.03697 8.3559 8.3559C8.03697 8.67482 8.03697 9.19191 8.3559 9.51084L15.0268 16.1817L8.356 22.8525C8.03707 23.1715 8.03707 23.6886 8.356 24.0075C8.67493 24.3264 9.19201 24.3264 9.51094 24.0075L16.1817 17.3367L22.8525 24.0075C23.1715 24.3264 23.6886 24.3264 24.0075 24.0075C24.3264 23.6885 24.3264 23.1715 24.0075 22.8525L17.3367 16.1817L24.0076 9.51084C24.3265 9.19191 24.3265 8.67482 24.0076 8.3559C23.6887 8.03697 23.1716 8.03697 22.8526 8.3559L16.1817 15.0268L9.51084 8.3559Z" fill="#262728"/>
  </g>
</svg>