<svg width="21" height="21" viewBox="0 0 21 21" fill="none" xmlns="http://www.w3.org/2000/svg">
<path fill-rule="evenodd" clip-rule="evenodd" d="M20.4291 1.50138C21.0816 2.15559 21.0802 3.21487 20.426 3.86736L13.3203 10.9545L20.3917 18.0258C21.045 18.6792 21.045 19.7384 20.3917 20.3918C19.7383 21.0451 18.679 21.0451 18.0257 20.3918L10.9512 13.3173L3.84243 20.4075C3.18823 21.06 2.12894 21.0586 1.47645 20.4044C0.823961 19.7502 0.825349 18.6909 1.47955 18.0385L8.58525 10.9514L1.46381 3.82991C0.810458 3.17656 0.810458 2.11728 1.46381 1.46393C2.11715 0.810581 3.17644 0.81058 3.82979 1.46393L10.9543 8.58847L18.0631 1.49828C18.7173 0.845791 19.7766 0.84718 20.4291 1.50138Z" fill="white"/>
</svg>
