<svg width="24" height="23" viewBox="0 0 24 23" fill="none" xmlns="http://www.w3.org/2000/svg">
    <path fill-rule="evenodd" clip-rule="evenodd" d="M17.6792 5.67924C18.0693 6.07028 18.0684 6.70344 17.6774 7.09345L13.4301 11.3296L17.6569 15.5563C18.0474 15.9469 18.0474 16.58 17.6569 16.9706C17.2663 17.3611 16.6332 17.3611 16.2426 16.9706L12.014 12.742L7.76492 16.98C7.37388 17.37 6.74072 17.3692 6.3507 16.9781C5.96069 16.5871 5.96152 15.9539 6.35256 15.5639L10.5998 11.3278L6.34315 7.07107C5.95262 6.68054 5.95262 6.04738 6.34315 5.65685C6.73367 5.26633 7.36684 5.26633 7.75736 5.65685L12.0159 9.91539L16.265 5.67739C16.6561 5.28738 17.2892 5.28821 17.6792 5.67924Z" fill="black" fill-opacity="0.65"/>
</svg>
