<svg width="40" height="41" viewBox="0 0 40 41" fill="none" xmlns="http://www.w3.org/2000/svg">
<g id="Group 25">
<circle id="Ellipse 2" cx="21" cy="18" r="18" fill="#FE8C59"/>
<g id="Group 7">
<g id="Group" filter="url(#filter0_d_188_6046)">
<path id="Vector" d="M29.491 15.2946C29.3744 15.0096 29.2047 14.7499 28.9926 14.5335C28.777 14.3135 28.526 14.1403 28.2431 14.0249C28.1265 13.9743 28.0098 13.9383 27.8897 13.9094C27.9215 13.7579 27.9356 13.5992 27.9356 13.4404C27.9356 13.1302 27.8755 12.8273 27.7588 12.5423C27.6422 12.2573 27.4725 11.9976 27.2604 11.7812C27.0448 11.5611 26.7937 11.388 26.5109 11.2725C26.2317 11.1535 25.9312 11.0922 25.6272 11.0922C25.3232 11.0922 25.0262 11.1535 24.7434 11.2725C24.7045 11.2906 24.6656 11.3086 24.6268 11.3267C24.6232 11.0273 24.5631 10.7315 24.4535 10.4537C24.3369 10.1687 24.1672 9.90902 23.9551 9.69258C23.7395 9.46894 23.4849 9.29579 23.2056 9.18036C22.9263 9.06132 22.6259 9 22.3219 9C22.0178 9 21.7209 9.06132 21.438 9.18036C21.1588 9.2994 20.9043 9.47254 20.6886 9.68897C20.5931 9.78637 20.5083 9.88737 20.4341 9.99919C20.3563 9.88737 20.2715 9.78637 20.1795 9.68897C19.971 9.46893 19.7164 9.29579 19.4372 9.18036C19.1579 9.06132 18.8575 9 18.5534 9C18.2494 9 17.9524 9.06132 17.6696 9.18036C17.3903 9.2994 17.1358 9.47254 16.9202 9.68897C16.7045 9.90541 16.5348 10.1651 16.4217 10.4501C16.3086 10.7279 16.252 11.0236 16.2485 11.323C15.941 11.1715 15.598 11.0886 15.2481 11.0886C14.9441 11.0886 14.6471 11.1499 14.3643 11.2689C14.0886 11.388 13.834 11.5611 13.6183 11.7776C13.4027 11.9976 13.2331 12.2537 13.12 12.5387C13.0033 12.8236 12.9431 13.1302 12.9431 13.4369C12.9431 13.5955 12.9573 13.7507 12.9891 13.9058C12.8689 13.9347 12.7488 13.9743 12.6356 14.0212C12.3564 14.1403 12.1018 14.3135 11.8861 14.5299C11.6705 14.7499 11.5009 15.006 11.3877 15.2909C11.2711 15.5759 11.2109 15.8826 11.2109 16.1892C11.2109 16.8132 11.4549 17.412 11.8861 17.8521C12.3175 18.2922 12.9043 18.5411 13.5158 18.5411C14.1274 18.5411 14.7143 18.2922 15.1456 17.8521C15.1809 17.816 15.2162 17.7799 15.2481 17.7402V17.9242H25.6272V17.7402C25.659 17.7799 25.6944 17.816 25.7297 17.8521C26.161 18.2922 26.7478 18.5411 27.3594 18.5411C27.971 18.5411 28.5578 18.2922 28.9891 17.8521C29.4204 17.412 29.6643 16.8132 29.6643 16.1892C29.6678 15.8861 29.6077 15.5831 29.491 15.2946Z" fill="white"/>
<path id="Vector_2" d="M24.9943 27.0001C25.1144 27.0001 25.1958 26.8811 25.1604 26.762L25.0225 26.3256C24.9978 26.2462 25.0296 26.156 25.1003 26.1163C25.1922 26.0622 25.3301 25.9828 25.5034 25.8746C25.8108 25.6871 26.228 25.4165 26.6769 25.0846C26.783 25.0089 26.8856 24.9332 26.9881 24.8537C27.1931 24.6986 27.3981 24.5255 27.6032 24.338C27.6491 24.2983 27.6915 24.2586 27.7375 24.2189H27.7305C28.9218 23.0682 30 21.3512 30 18.9993V16.6401C30 16.4598 29.8445 16.3227 29.6712 16.348C28.5188 16.5284 24.5064 17.1091 20.4693 17.1091C16.4252 17.1091 12.3562 16.5284 11.1967 16.348C11.0305 16.3227 10.875 16.4598 10.875 16.6401V18.9993C10.875 21.3439 11.9426 23.0574 13.1517 24.2189H13.1411C13.2188 24.291 13.2966 24.3596 13.3743 24.4245C13.6606 24.6806 13.9506 24.9115 14.2334 25.1099C14.601 25.3805 14.9439 25.6041 15.2197 25.7808C15.4707 25.936 15.6686 26.0514 15.7853 26.1163C15.856 26.156 15.8913 26.2425 15.8666 26.3256L15.7358 26.762C15.7004 26.8774 15.7818 27.0001 15.9019 27.0001H24.9943Z" fill="url(#paint0_linear_188_6046)"/>
</g>
</g>
</g>
<defs>
<filter id="filter0_d_188_6046" x="0.875" y="3" width="39.125" height="38" filterUnits="userSpaceOnUse" color-interpolation-filters="sRGB">
<feFlood flood-opacity="0" result="BackgroundImageFix"/>
<feColorMatrix in="SourceAlpha" type="matrix" values="0 0 0 0 0 0 0 0 0 0 0 0 0 0 0 0 0 0 127 0" result="hardAlpha"/>
<feOffset dy="4"/>
<feGaussianBlur stdDeviation="5"/>
<feColorMatrix type="matrix" values="0 0 0 0 0 0 0 0 0 0 0 0 0 0 0 0 0 0 0.1 0"/>
<feBlend mode="normal" in2="BackgroundImageFix" result="effect1_dropShadow_188_6046"/>
<feBlend mode="normal" in="SourceGraphic" in2="effect1_dropShadow_188_6046" result="shape"/>
</filter>
<linearGradient id="paint0_linear_188_6046" x1="13.1313" y1="16.7659" x2="27.8661" y2="26.6289" gradientUnits="userSpaceOnUse">
<stop stop-color="#F7ECD1"/>
<stop offset="1" stop-color="#F4B59E"/>
</linearGradient>
</defs>
</svg>
