<svg width="34" height="33" viewBox="0 0 34 33" fill="none" xmlns="http://www.w3.org/2000/svg">
<circle cx="16.9092" cy="12.772" r="12" fill="#FF9522"/>
<g filter="url(#filter0_d_1658_7715)">
<path d="M22.9446 10.9684C22.8668 10.7784 22.7537 10.6052 22.6122 10.4609C22.4685 10.3143 22.3012 10.1988 22.1126 10.1219C22.0348 10.0882 21.9571 10.0641 21.877 10.0449C21.8982 9.94392 21.9076 9.83813 21.9076 9.73227C21.9076 9.52546 21.8675 9.3235 21.7898 9.13349C21.712 8.94351 21.5988 8.77037 21.4574 8.62608C21.3137 8.47939 21.1463 8.36396 20.9578 8.287C20.7717 8.20764 20.5713 8.16676 20.3686 8.16676C20.166 8.16676 19.968 8.20764 19.7794 8.287C19.7535 8.29902 19.7276 8.31105 19.7017 8.32307C19.6993 8.12348 19.6593 7.92628 19.5862 7.74111C19.5084 7.55113 19.3953 7.37799 19.2539 7.23369C19.1102 7.0846 18.9405 6.96916 18.7543 6.89222C18.5681 6.81286 18.3678 6.77197 18.1651 6.77197C17.9624 6.77197 17.7645 6.81286 17.5759 6.89222C17.3897 6.97157 17.22 7.087 17.0762 7.23129C17.0126 7.29622 16.9561 7.36355 16.9066 7.4381C16.8547 7.36355 16.7982 7.29622 16.7369 7.23129C16.5978 7.0846 16.4281 6.96916 16.242 6.89222C16.0558 6.81286 15.8555 6.77197 15.6528 6.77197C15.4501 6.77197 15.2521 6.81286 15.0636 6.89222C14.8774 6.97157 14.7077 7.087 14.564 7.23129C14.4202 7.37558 14.3071 7.54872 14.2317 7.7387C14.1563 7.92387 14.1185 8.12107 14.1162 8.32067C13.9112 8.21966 13.6825 8.16435 13.4492 8.16435C13.2466 8.16435 13.0486 8.20524 12.8601 8.2846C12.6762 8.36396 12.5065 8.47939 12.3627 8.62367C12.219 8.77037 12.1059 8.94111 12.0305 9.13109C11.9527 9.32105 11.9126 9.52546 11.9126 9.72987C11.9126 9.83567 11.9221 9.93908 11.9433 10.0425C11.8631 10.0617 11.783 10.0882 11.7076 10.1194C11.5214 10.1988 11.3517 10.3143 11.2079 10.4585C11.0642 10.6052 10.9511 10.776 10.8756 10.9659C10.7979 11.1559 10.7578 11.3603 10.7578 11.5648C10.7578 11.9808 10.9204 12.38 11.2079 12.6734C11.4955 12.9668 11.8867 13.1327 12.2944 13.1327C12.7021 13.1327 13.0934 12.9668 13.3809 12.6734C13.4045 12.6493 13.428 12.6252 13.4492 12.5988V12.7215H20.3686V12.5988C20.3899 12.6252 20.4134 12.6493 20.437 12.6734C20.7245 12.9668 21.1157 13.1327 21.5234 13.1327C21.9312 13.1327 22.3224 12.9668 22.6099 12.6734C22.8974 12.38 23.0601 11.9808 23.0601 11.5648C23.0624 11.3627 23.0223 11.1607 22.9446 10.9684Z" fill="white"/>
<path d="M19.947 18.7719C20.0271 18.7719 20.0814 18.6925 20.0578 18.6131L19.9659 18.3222C19.9494 18.2693 19.9706 18.2091 20.0177 18.1827C20.079 18.1466 20.1709 18.0937 20.2864 18.0215C20.4914 17.8965 20.7695 17.7162 21.0688 17.4949C21.1395 17.4444 21.2079 17.3939 21.2762 17.341C21.4129 17.2376 21.5496 17.1221 21.6863 16.9971C21.7169 16.9707 21.7452 16.9442 21.7759 16.9177H21.7712C22.5654 16.1506 23.2842 15.006 23.2842 13.438V11.8652C23.2842 11.745 23.1805 11.6536 23.065 11.6705C22.2967 11.7907 19.6218 12.1779 16.9304 12.1779C14.2343 12.1779 11.5217 11.7907 10.7487 11.6705C10.6379 11.6536 10.5342 11.745 10.5342 11.8652V13.438C10.5342 15.0011 11.2459 16.1434 12.052 16.9177H12.0449C12.0967 16.9658 12.1486 17.0116 12.2004 17.0548C12.3913 17.2255 12.5846 17.3795 12.7731 17.5118C13.0182 17.6921 13.2468 17.8412 13.4306 17.959C13.5979 18.0625 13.7299 18.1394 13.8077 18.1827C13.8549 18.2091 13.8784 18.2668 13.8619 18.3222L13.7747 18.6131C13.7511 18.6901 13.8054 18.7719 13.8855 18.7719H19.947Z" fill="url(#paint0_linear_1658_7715)"/>
</g>
<defs>
<filter id="filter0_d_1658_7715" x="0.53418" y="0.771973" width="32.75" height="32" filterUnits="userSpaceOnUse" color-interpolation-filters="sRGB">
<feFlood flood-opacity="0" result="BackgroundImageFix"/>
<feColorMatrix in="SourceAlpha" type="matrix" values="0 0 0 0 0 0 0 0 0 0 0 0 0 0 0 0 0 0 127 0" result="hardAlpha"/>
<feOffset dy="4"/>
<feGaussianBlur stdDeviation="5"/>
<feColorMatrix type="matrix" values="0 0 0 0 0 0 0 0 0 0 0 0 0 0 0 0 0 0 0.1 0"/>
<feBlend mode="normal" in2="BackgroundImageFix" result="effect1_dropShadow_1658_7715"/>
<feBlend mode="normal" in="SourceGraphic" in2="effect1_dropShadow_1658_7715" result="shape"/>
</filter>
<linearGradient id="paint0_linear_1658_7715" x1="12.0384" y1="11.9491" x2="21.8616" y2="18.5244" gradientUnits="userSpaceOnUse">
<stop stop-color="#F7ECD1"/>
<stop offset="1" stop-color="#F4B59E"/>
</linearGradient>
</defs>
</svg>
