<svg width="49" height="51" viewBox="0 0 49 51" fill="none" xmlns="http://www.w3.org/2000/svg">
<circle cx="24.6628" cy="24.0866" r="24.0866" fill="#FE8C59"/>
<g filter="url(#filter0_d_388_7514)">
<path d="M36.0259 20.4661C35.8698 20.0847 35.6427 19.7371 35.3589 19.4475C35.0704 19.1531 34.7345 18.9214 34.356 18.767C34.1999 18.6993 34.0438 18.6511 33.883 18.6125C33.9256 18.4098 33.9444 18.1974 33.9444 17.9849C33.9444 17.5698 33.864 17.1644 33.7079 16.783C33.5518 16.4017 33.3248 16.0542 33.0409 15.7646C32.7524 15.4701 32.4165 15.2384 32.0381 15.084C31.6644 14.9247 31.2623 14.8426 30.8555 14.8426C30.4487 14.8426 30.0513 14.9247 29.6728 15.084C29.6208 15.1081 29.5688 15.1322 29.5168 15.1564C29.512 14.7557 29.4316 14.3599 29.2849 13.9882C29.1288 13.6069 28.9018 13.2594 28.6179 12.9697C28.3294 12.6705 27.9888 12.4388 27.6151 12.2843C27.2413 12.125 26.8393 12.043 26.4325 12.043C26.0256 12.043 25.6283 12.125 25.2498 12.2843C24.8761 12.4436 24.5355 12.6753 24.2469 12.9649C24.1192 13.0952 24.0057 13.2304 23.9063 13.38C23.8023 13.2304 23.6888 13.0952 23.5657 12.9649C23.2866 12.6705 22.946 12.4388 22.5724 12.2843C22.1986 12.125 21.7966 12.043 21.3897 12.043C20.9829 12.043 20.5855 12.125 20.2071 12.2843C19.8333 12.4436 19.4927 12.6753 19.2042 12.9649C18.9156 13.2545 18.6886 13.6021 18.5372 13.9834C18.3859 14.3551 18.3102 14.7509 18.3054 15.1515C17.8939 14.9488 17.435 14.8378 16.9667 14.8378C16.5599 14.8378 16.1625 14.9198 15.7841 15.0791C15.4151 15.2384 15.0745 15.4701 14.7859 15.7597C14.4974 16.0542 14.2703 16.3969 14.119 16.7782C13.9629 17.1595 13.8824 17.5698 13.8824 17.9801C13.8824 18.1925 13.9014 18.4 13.9439 18.6076C13.783 18.6463 13.6223 18.6993 13.4708 18.762C13.0972 18.9214 12.7566 19.1531 12.468 19.4427C12.1795 19.7371 11.9524 20.0799 11.8009 20.4612C11.645 20.8425 11.5645 21.2528 11.5645 21.6631C11.5645 22.4981 11.8909 23.2994 12.468 23.8883C13.0452 24.4772 13.8304 24.8103 14.6488 24.8103C15.4671 24.8103 16.2524 24.4772 16.8295 23.8883C16.8769 23.84 16.9241 23.7917 16.9667 23.7387V23.9849H30.8555V23.7387C30.8981 23.7917 30.9454 23.84 30.9926 23.8883C31.5697 24.4772 32.355 24.8103 33.1734 24.8103C33.9918 24.8103 34.7771 24.4772 35.3542 23.8883C35.9313 23.2994 36.2577 22.4981 36.2577 21.6631C36.2624 21.2576 36.182 20.8521 36.0259 20.4661Z" fill="white"/>
<path d="M30.0069 36.1292C30.1677 36.1292 30.2766 35.9699 30.2292 35.8105L30.0447 35.2265C30.0116 35.1204 30.0542 34.9997 30.1488 34.9466C30.2718 34.8741 30.4563 34.768 30.6881 34.6231C31.0996 34.3722 31.6578 34.0102 32.2586 33.566C32.4005 33.4646 32.5377 33.3634 32.6749 33.2571C32.9493 33.0495 33.2236 32.8178 33.498 32.5669C33.5594 32.5138 33.6162 32.4607 33.6777 32.4075H33.6683C35.2625 30.8678 36.7053 28.5702 36.7053 25.423V22.2661C36.7053 22.0248 36.4972 21.8414 36.2653 21.8751C34.7232 22.1165 29.3541 22.8937 23.9519 22.8937C18.5402 22.8937 13.0954 22.1165 11.5438 21.8751C11.3214 21.8414 11.1133 22.0248 11.1133 22.2661V25.423C11.1133 28.5604 12.5419 30.8533 14.1598 32.4075H14.1456C14.2496 32.5041 14.3537 32.5958 14.4577 32.6827C14.8409 33.0254 15.2288 33.3343 15.6072 33.5999C16.0992 33.9619 16.5581 34.2611 16.9271 34.4976C17.2629 34.7053 17.5278 34.8597 17.6839 34.9466C17.7786 34.9997 17.8258 35.1154 17.7928 35.2265L17.6177 35.8105C17.5704 35.965 17.6793 36.1292 17.84 36.1292H30.0069Z" fill="url(#paint0_linear_388_7514)"/>
</g>
<defs>
<filter id="filter0_d_388_7514" x="1.11328" y="6.04297" width="45.5918" height="44.0864" filterUnits="userSpaceOnUse" color-interpolation-filters="sRGB">
<feFlood flood-opacity="0" result="BackgroundImageFix"/>
<feColorMatrix in="SourceAlpha" type="matrix" values="0 0 0 0 0 0 0 0 0 0 0 0 0 0 0 0 0 0 127 0" result="hardAlpha"/>
<feOffset dy="4"/>
<feGaussianBlur stdDeviation="5"/>
<feColorMatrix type="matrix" values="0 0 0 0 0 0 0 0 0 0 0 0 0 0 0 0 0 0 0.1 0"/>
<feBlend mode="normal" in2="BackgroundImageFix" result="effect1_dropShadow_388_7514"/>
<feBlend mode="normal" in="SourceGraphic" in2="effect1_dropShadow_388_7514" result="shape"/>
</filter>
<linearGradient id="paint0_linear_388_7514" x1="14.1326" y1="22.4343" x2="33.8498" y2="35.6324" gradientUnits="userSpaceOnUse">
<stop stop-color="#F7ECD1"/>
<stop offset="1" stop-color="#F4B59E"/>
</linearGradient>
</defs>
</svg>
