<svg width="18" height="20" viewBox="0 0 18 20" fill="none" xmlns="http://www.w3.org/2000/svg">
    <path fill-rule="evenodd" clip-rule="evenodd" d="M15.7663 14.6528C14.2831 14.6437 12.8327 14.2154 11.583 13.4175C10.3333 12.6196 9.33532 11.4846 8.70452 10.1439C8.0737 8.80316 7.83582 7.31149 8.01842 5.84139C8.20099 4.37129 8.79658 2.98287 9.73626 1.8367L9.8515 1.69644C10.4043 1.0239 10.1486 0.509601 9.28073 0.547364H9.10067C7.53157 0.611854 6.00355 1.06731 4.65574 1.87227C3.3079 2.67722 2.1831 3.80612 1.38373 5.15614C0.584359 6.50616 0.135811 8.03445 0.0789322 9.60185C0.0220531 11.1692 0.358648 12.7259 1.05807 14.1302C1.75749 15.5345 2.79752 16.7417 4.08345 17.642C5.3694 18.5424 6.8604 19.107 8.42071 19.2849C9.98103 19.4625 11.5611 19.2477 13.017 18.6598C14.4729 18.0719 15.7585 17.1296 16.7566 15.9187L16.8718 15.7785C17.4246 15.1059 17.1689 14.5916 16.3011 14.6294H16.121C16.0022 14.645 15.8839 14.6528 15.7663 14.6528ZM6.99223 2.53443C7.16314 2.46931 7.33745 2.41349 7.51439 2.36719C6.82406 3.65768 6.44398 5.09095 6.40426 6.55355C6.36454 8.01613 6.66628 9.46788 7.28556 10.7939C7.90486 12.1198 8.8247 13.2836 9.97228 14.1931C11.1199 15.1026 12.4637 15.7328 13.8973 16.0338L14.3493 16.1165C13.1955 17.0269 11.8075 17.5931 10.3455 17.7499C8.88342 17.9066 7.40677 17.6475 6.08578 17.0024C4.7648 16.3573 3.65323 15.3525 2.87925 14.1039C2.10527 12.8552 1.70036 11.4135 1.71124 9.94497C1.71081 8.31473 2.21924 6.72488 3.16575 5.39669C4.11226 4.06849 5.4498 3.06798 6.99223 2.53443Z" fill="#919191"/>
</svg>
