<svg xmlns="http://www.w3.org/2000/svg" width="20" height="21" viewBox="0 0 20 21" fill="none">
  <mask id="mask0_3391_32369" style="mask-type:alpha" maskUnits="userSpaceOnUse" x="0" y="0" width="20" height="21">
    <rect y="0.5" width="20" height="20" fill="#D9D9D9"/>
  </mask>
  <g mask="url(#mask0_3391_32369)">
    <path d="M9.9974 18.0837C8.56156 18.0837 7.40399 17.8956 6.52469 17.5195C5.64538 17.1435 5.20573 16.6494 5.20573 16.0372C5.20573 15.8118 5.29149 15.5914 5.46302 15.3762C5.63441 15.1609 5.87823 14.964 6.19448 14.7855C6.32698 14.7172 6.46934 14.7121 6.62156 14.7703C6.77378 14.8285 6.88413 14.9239 6.9526 15.0564C7.02094 15.1889 7.02601 15.3264 6.96781 15.4691C6.90962 15.6117 6.81427 15.7172 6.68177 15.7855C6.57705 15.8315 6.48677 15.875 6.41094 15.9162C6.33497 15.9573 6.28899 16.0019 6.27302 16.0499C6.34135 16.2712 6.76524 16.4848 7.54469 16.691C8.32399 16.8972 9.14156 17.0003 9.9974 17.0003C10.8532 17.0003 11.6708 16.8972 12.4501 16.691C13.2295 16.4848 13.6534 16.2712 13.7218 16.0499C13.7058 16.0019 13.6598 15.9573 13.5839 15.9162C13.508 15.875 13.4177 15.8315 13.313 15.7855C13.1805 15.7172 13.0852 15.6117 13.027 15.4691C12.9688 15.3264 12.9739 15.1889 13.0422 15.0564C13.1107 14.9239 13.221 14.8285 13.3732 14.7703C13.5255 14.7121 13.6678 14.7172 13.8003 14.7855C14.1166 14.964 14.3604 15.1609 14.5318 15.3762C14.7033 15.5914 14.7891 15.8118 14.7891 16.0372C14.7891 16.6494 14.3494 17.1435 13.4701 17.5195C12.5908 17.8956 11.4332 18.0837 9.9974 18.0837ZM9.9974 15.2616C9.86059 15.2616 9.72385 15.2386 9.58719 15.1926C9.45038 15.1466 9.32483 15.0735 9.21052 14.973C7.76719 13.7979 6.69031 12.6387 5.9799 11.4955C5.26934 10.3523 4.91406 9.25033 4.91406 8.18949C4.91406 7.33158 5.0674 6.57463 5.37406 5.91866C5.68073 5.26269 6.0792 4.71324 6.56948 4.27033C7.0599 3.82755 7.60615 3.4913 8.20823 3.26158C8.81017 3.03185 9.40656 2.91699 9.9974 2.91699C10.5882 2.91699 11.1846 3.03185 11.7866 3.26158C12.3886 3.4913 12.9349 3.82755 13.4253 4.27033C13.9156 4.71324 14.3141 5.26269 14.6207 5.91866C14.9274 6.57463 15.0807 7.33158 15.0807 8.18949C15.0807 9.25033 14.7255 10.3523 14.0149 11.4955C13.3045 12.6387 12.2276 13.7979 10.7843 14.973C10.67 15.0735 10.5444 15.1466 10.4076 15.1926C10.2709 15.2386 10.1342 15.2616 9.9974 15.2616ZM9.9974 9.4122C10.3713 9.4122 10.688 9.28373 10.9476 9.02678C11.2073 8.76984 11.3372 8.45171 11.3372 8.07241C11.3372 7.69852 11.2073 7.38178 10.9476 7.1222C10.688 6.86248 10.3713 6.73262 9.9974 6.73262C9.62879 6.73262 9.31337 6.86595 9.05115 7.13262C8.78878 7.39914 8.6576 7.71241 8.6576 8.07241C8.6576 8.43783 8.78878 8.75248 9.05115 9.01637C9.31337 9.28026 9.62879 9.4122 9.9974 9.4122Z" fill="#FF9522"/>
  </g>
</svg>