<svg width="28" height="30" viewBox="0 0 28 30" fill="none" xmlns="http://www.w3.org/2000/svg">
<path d="M18.1111 7.16242L8.13264 17.4351C7.84322 17.7228 7.61237 18.0671 7.45356 18.4477C7.29475 18.8283 7.21116 19.2376 7.20766 19.6518C7.20417 20.066 7.28083 20.4768 7.4332 20.8602C7.58556 21.2436 7.81056 21.5919 8.09507 21.8848C8.37959 22.1777 8.71792 22.4093 9.09032 22.5662C9.46272 22.723 9.86174 22.8019 10.2641 22.7983C10.6664 22.7947 11.0641 22.7087 11.4338 22.5452C11.8035 22.3817 12.1378 22.144 12.4174 21.8461L22.1352 11.5734C23.2392 10.3967 23.85 8.82074 23.8362 7.18487C23.8224 5.549 23.1851 3.98416 22.0614 2.82739C20.9378 1.67061 19.4177 1.01445 17.8287 1.00024C16.2397 0.986021 14.7088 1.61489 13.5658 2.75138L3.8464 13.0225C2.14143 14.7777 1.18359 17.1583 1.18359 19.6406C1.18359 22.1229 2.14143 24.5035 3.8464 26.2587C5.55137 28.0139 7.8638 29 10.275 29C12.6862 29 14.9986 28.0139 16.7036 26.2587L26.1836 16.521" stroke="#DFDFDF" stroke-width="2" stroke-linecap="round" stroke-linejoin="round"/>
</svg>
