<svg width="21" height="21" viewBox="0 0 21 21" fill="none" xmlns="http://www.w3.org/2000/svg">
<rect width="21" height="21" fill="#F5F5F5"/>
<g id="0414">
<path d="M-17577 -1188C-17577 -1189.1 -17576.1 -1190 -17575 -1190H2593C2594.11 -1190 2595 -1189.1 2595 -1188V7622C2595 7623.1 2594.11 7624 2593 7624H-17575C-17576.1 7624 -17577 7623.1 -17577 7622V-1188Z" fill="#E0E0E0"/>
<path d="M-17575 -1189H2593V-1191H-17575V-1189ZM2594 -1188V7622H2596V-1188H2594ZM2593 7623H-17575V7625H2593V7623ZM-17576 7622V-1188H-17578V7622H-17576ZM-17575 7623C-17575.6 7623 -17576 7622.55 -17576 7622H-17578C-17578 7623.66 -17576.7 7625 -17575 7625V7623ZM2594 7622C2594 7622.55 2593.55 7623 2593 7623V7625C2594.66 7625 2596 7623.66 2596 7622H2594ZM2593 -1189C2593.55 -1189 2594 -1188.55 2594 -1188H2596C2596 -1189.66 2594.66 -1191 2593 -1191V-1189ZM-17575 -1191C-17576.7 -1191 -17578 -1189.66 -17578 -1188H-17576C-17576 -1188.55 -17575.6 -1189 -17575 -1189V-1191Z" fill="black" fill-opacity="0.1"/>
<g id="&#235;&#167;&#136;&#236;&#157;&#180;&#237;&#142;&#152;&#236;&#157;&#180;&#236;&#167;&#128;">
<rect width="1920" height="1080" transform="translate(-1200 -566)" fill="#F7F8F8"/>
<g id="Frame 138">
<g id="Frame 137">
<rect x="-511.5" y="-103.5" width="543" height="183" rx="7.5" fill="white"/>
<rect x="-511.5" y="-103.5" width="543" height="183" rx="7.5" stroke="#E8E8E8"/>
<g id="Group 112">
<g id="Group 77">
<path id="Vector" d="M19.7793 10.5C19.7793 5.2533 15.526 1 10.2793 1C5.03259 1 0.779297 5.2533 0.779297 10.5C0.779297 15.7467 5.03259 20 10.2793 20C15.526 20 19.7793 15.7467 19.7793 10.5Z" stroke="#FF9522" stroke-width="1.25"/>
<path id="Vector 2" d="M5.49414 10.4997L8.75819 13.804L14.5609 7.19531" stroke="#FF9522" stroke-width="1.25"/>
</g>
</g>
</g>
</g>
</g>
</g>
</svg>
