<svg width="16" height="18" viewBox="0 0 16 18" fill="none" xmlns="http://www.w3.org/2000/svg">
    <path fill-rule="evenodd" clip-rule="evenodd" d="M7.90911 5.75103C8.4614 5.75103 8.90911 5.27362 8.90911 4.68466C8.90911 4.09568 8.4614 3.61829 7.90911 3.61829C7.35683 3.61829 6.90911 4.09568 6.90911 4.68466C6.90911 5.27362 7.35683 5.75103 7.90911 5.75103ZM7.27272 6.72048H8.72726V12.9248H9.45456V13.3126H8.72726H7.27272H6.54546V12.9248H7.27272L7.27274 7.10824H6.54546V6.72048H7.27272ZM8 16.4147C12.0166 16.4147 15.2727 12.9425 15.2727 8.65929C15.2727 4.37608 12.0166 0.903857 8 0.903857C3.98338 0.903857 0.727278 4.37608 0.727278 8.65929C0.727278 12.9425 3.98338 16.4147 8 16.4147ZM8 17.1903C3.58173 17.1903 0 13.3708 0 8.6593C0 3.94778 3.58173 0.128326 8 0.128326C12.4183 0.128326 16 3.94778 16 8.6593C16 13.3708 12.4183 17.1903 8 17.1903Z" fill="#FF9522"/>
</svg>
