<svg xmlns="http://www.w3.org/2000/svg" width="20" height="20" viewBox="0 0 20 20" fill="none">
  <mask id="mask0_3391_32845" style="mask-type:alpha" maskUnits="userSpaceOnUse" x="0" y="0" width="20" height="20">
    <rect x="20" y="20" width="20" height="20" transform="rotate(-180 20 20)" fill="#D9D9D9"/>
  </mask>
  <g mask="url(#mask0_3391_32845)">
    <path d="M7.64083 9.99992L13.9181 16.2772C14.0837 16.4428 14.1643 16.6398 14.16 16.8685C14.1557 17.0971 14.0708 17.2942 13.9052 17.4599C13.7396 17.6255 13.5426 17.7083 13.314 17.7083C13.0853 17.7083 12.8882 17.6255 12.7225 17.4599L6.3427 11.0672C6.19215 10.9165 6.08055 10.7477 6.00791 10.5608C5.93513 10.3738 5.89874 10.1869 5.89874 9.99992C5.89874 9.81297 5.93513 9.62603 6.00791 9.43908C6.08055 9.25214 6.19215 9.08332 6.3427 8.93263L12.7354 2.53992C12.901 2.37436 13.0959 2.29374 13.3202 2.29804C13.5446 2.30235 13.7396 2.38728 13.9052 2.55283C14.0708 2.71839 14.1535 2.91547 14.1535 3.14408C14.1535 3.37269 14.0708 3.56985 13.9052 3.73554L7.64083 9.99992Z" fill="#D8DADE"/>
  </g>
</svg>