<svg xmlns="http://www.w3.org/2000/svg" width="24" height="24" viewBox="0 0 24 24" fill="none">
  <mask id="mask0_3391_30043" style="mask-type:alpha" maskUnits="userSpaceOnUse" x="0" y="0" width="24" height="24">
    <rect x="24" y="24" width="24" height="24" transform="rotate(-180 24 24)" fill="#D9D9D9"/>
  </mask>
  <g mask="url(#mask0_3391_30043)">
    <path d="M9.16899 12L16.7017 19.5327C16.9004 19.7314 16.9972 19.9679 16.992 20.2423C16.9868 20.5166 16.8849 20.7532 16.6862 20.952C16.4876 21.1507 16.2511 21.25 15.9767 21.25C15.7024 21.25 15.4658 21.1507 15.267 20.952L7.61124 13.2807C7.43058 13.0999 7.29666 12.8973 7.20949 12.673C7.12216 12.4487 7.07849 12.2243 7.07849 12C7.07849 11.7757 7.12216 11.5513 7.20949 11.327C7.29666 11.1027 7.43058 10.9001 7.61124 10.7192L15.2825 3.048C15.4812 2.84933 15.7151 2.75258 15.9842 2.75775C16.2536 2.76292 16.4876 2.86483 16.6862 3.0635C16.8849 3.26217 16.9842 3.49866 16.9842 3.773C16.9842 4.04733 16.8849 4.28392 16.6862 4.48275L9.16899 12Z" fill="#727478"/>
  </g>
</svg>