<svg xmlns="http://www.w3.org/2000/svg" width="31" height="30" viewBox="0 0 31 30" fill="none">
  <mask id="mask0_3380_12091" style="mask-type:alpha" maskUnits="userSpaceOnUse" x="0" y="0" width="31" height="30">
    <rect x="0.875" width="30" height="30" fill="#D9D9D9"/>
  </mask>
  <g mask="url(#mask0_3380_12091)">
    <path d="M15.8741 6.51375C15.6082 6.51375 15.3856 6.42396 15.2063 6.24438C15.0267 6.06458 14.9369 5.84188 14.9369 5.57625V2.83594C14.9369 2.57031 15.0268 2.34771 15.2066 2.16813C15.3864 1.98833 15.6091 1.89844 15.8747 1.89844C16.1405 1.89844 16.3631 1.98833 16.5425 2.16813C16.7221 2.34771 16.8119 2.57031 16.8119 2.83594V5.57625C16.8119 5.84188 16.722 6.06458 16.5422 6.24438C16.3624 6.42396 16.1397 6.51375 15.8741 6.51375ZM21.8697 9.00406C21.6966 8.83115 21.612 8.61688 21.6159 8.36125C21.6199 8.10563 21.7084 7.88083 21.8816 7.68687L23.7878 5.7375C23.9759 5.54354 24.1993 5.44656 24.4578 5.44656C24.7164 5.44656 24.9434 5.54437 25.1391 5.74C25.3184 5.91937 25.4081 6.13802 25.4081 6.39594C25.4081 6.65406 25.3175 6.87365 25.1363 7.05469L23.1869 9.00406C23.0058 9.18531 22.7862 9.27594 22.5281 9.27594C22.2702 9.27594 22.0507 9.18531 21.8697 9.00406ZM25.2975 15.9369C25.0319 15.9369 24.8092 15.847 24.6294 15.6672C24.4498 15.4874 24.36 15.2647 24.36 14.9991C24.36 14.7332 24.4498 14.5106 24.6294 14.3313C24.8092 14.1517 25.0319 14.0619 25.2975 14.0619H28.0378C28.3034 14.0619 28.526 14.1518 28.7056 14.3316C28.8854 14.5114 28.9753 14.7341 28.9753 14.9997C28.9753 15.2655 28.8854 15.4881 28.7056 15.6675C28.526 15.8471 28.3034 15.9369 28.0378 15.9369H25.2975ZM15.8741 28.1003C15.6082 28.1003 15.3856 28.0104 15.2063 27.8306C15.0267 27.651 14.9369 27.4284 14.9369 27.1628V24.4344C14.9369 24.1688 15.0268 23.9461 15.2066 23.7666C15.3864 23.5868 15.6091 23.4969 15.8747 23.4969C16.1405 23.4969 16.3631 23.5868 16.5425 23.7666C16.7221 23.9461 16.8119 24.1688 16.8119 24.4344V27.1628C16.8119 27.4284 16.722 27.651 16.5422 27.8306C16.3624 28.0104 16.1397 28.1003 15.8741 28.1003ZM8.57406 9.00406L6.6125 7.08594C6.41854 6.89865 6.32156 6.67229 6.32156 6.40687C6.32156 6.14167 6.41854 5.91854 6.6125 5.7375C6.79354 5.56437 7.01573 5.47781 7.27906 5.47781C7.5424 5.47781 7.75927 5.56437 7.92969 5.7375L9.89125 7.69906C10.0644 7.86948 10.1509 8.08636 10.1509 8.34969C10.1509 8.61302 10.0652 8.83115 9.89375 9.00406C9.70667 9.17719 9.48844 9.26375 9.23906 9.26375C8.98948 9.26375 8.76781 9.17719 8.57406 9.00406ZM23.8 24.2613L21.8816 22.3119C21.7084 22.1179 21.6199 21.8931 21.6159 21.6375C21.612 21.3819 21.6957 21.1676 21.8672 20.9947C22.0386 20.8216 22.253 20.735 22.5103 20.735C22.7674 20.735 22.9929 20.8255 23.1869 21.0066L25.1363 22.925C25.3223 23.0979 25.4121 23.3154 25.4056 23.5775C25.3992 23.8396 25.3082 24.0675 25.1328 24.2613C24.9414 24.4552 24.714 24.5522 24.4506 24.5522C24.1871 24.5522 23.9702 24.4552 23.8 24.2613ZM3.71094 15.9369C3.44531 15.9369 3.22271 15.847 3.04313 15.6672C2.86333 15.4874 2.77344 15.2647 2.77344 14.9991C2.77344 14.7332 2.86333 14.5106 3.04313 14.3313C3.22271 14.1517 3.44531 14.0619 3.71094 14.0619H6.45125C6.71688 14.0619 6.93958 14.1518 7.11938 14.3316C7.29896 14.5114 7.38875 14.7341 7.38875 14.9997C7.38875 15.2655 7.29896 15.4881 7.11938 15.6675C6.93958 15.8471 6.71688 15.9369 6.45125 15.9369H3.71094ZM6.62438 24.2613C6.45125 24.0802 6.36271 23.8586 6.35875 23.5966C6.35479 23.3347 6.43937 23.1172 6.6125 22.9441L8.55 21.0066C8.73104 20.8255 8.9474 20.735 9.19906 20.735C9.45052 20.735 9.67323 20.8247 9.86719 21.0041C10.0611 21.1997 10.1581 21.4253 10.1581 21.6809C10.1581 21.9366 10.0611 22.1613 9.86719 22.355L7.96094 24.2613C7.76698 24.4552 7.53833 24.5522 7.275 24.5522C7.01167 24.5522 6.79479 24.4552 6.62438 24.2613ZM15.8772 21.8744C13.9682 21.8744 12.3447 21.2063 11.0066 19.87C9.66844 18.5338 8.99938 16.9111 8.99938 15.0022C8.99938 13.0932 9.6675 11.4697 11.0038 10.1316C12.34 8.79344 13.9626 8.12438 15.8716 8.12438C17.7805 8.12438 19.4041 8.7925 20.7422 10.1288C22.0803 11.465 22.7494 13.0876 22.7494 14.9966C22.7494 16.9055 22.0813 18.5291 20.745 19.8672C19.4088 21.2053 17.7861 21.8744 15.8772 21.8744ZM15.8744 19.9994C17.2494 19.9994 18.4265 19.5098 19.4056 18.5306C20.3848 17.5515 20.8744 16.3744 20.8744 14.9994C20.8744 13.6244 20.3848 12.4473 19.4056 11.4681C18.4265 10.489 17.2494 9.99938 15.8744 9.99938C14.4994 9.99938 13.3223 10.489 12.3431 11.4681C11.364 12.4473 10.8744 13.6244 10.8744 14.9994C10.8744 16.3744 11.364 17.5515 12.3431 18.5306C13.3223 19.5098 14.4994 19.9994 15.8744 19.9994Z" fill="#FF9522"/>
  </g>
</svg>