<svg width="35" height="35" viewBox="0 0 35 35" fill="none" xmlns="http://www.w3.org/2000/svg">
    <path d="M17.285 25.8122C15.5819 25.8122 13.9172 25.3074 12.5011 24.362C11.0851 23.4166 9.98148 22.0726 9.32977 20.5004C8.67805 18.9281 8.50752 17.198 8.83978 15.5288C9.17202 13.8597 9.9921 12.3265 11.1963 11.1231C12.4005 9.91977 13.9348 9.10026 15.6051 8.76825C17.2755 8.43624 19.0066 8.60663 20.5801 9.25789C22.1535 9.90916 23.4982 11.012 24.4445 12.4271C25.3905 13.8421 25.8956 15.5057 25.8956 17.2075C25.8956 19.4895 24.9884 21.6783 23.3736 23.2919C21.7588 24.9055 19.5686 25.8122 17.285 25.8122ZM17.285 11.0619C16.0686 11.0619 14.8796 11.4223 13.8682 12.0976C12.8568 12.7729 12.0686 13.7327 11.6031 14.8557C11.1377 15.9787 11.0159 17.2143 11.2532 18.4065C11.4905 19.5987 12.0762 20.6937 12.9363 21.5533C13.7963 22.4127 14.8922 22.998 16.0851 23.2352C17.2782 23.4722 18.5147 23.3505 19.6385 22.8854C20.7621 22.4202 21.7227 21.6326 22.3984 20.622C23.0742 19.6113 23.435 18.423 23.435 17.2075C23.4345 15.5779 22.7862 14.0151 21.6331 12.863C20.4798 11.7108 18.9158 11.0619 17.285 11.0619Z" fill="#919191"/>
    <path d="M17.285 34.175C16.9588 34.175 16.6463 34.0458 16.4156 33.8155C16.1848 33.5853 16.055 33.273 16.0546 32.9472V30.7335C16.0546 30.4074 16.1842 30.0948 16.4149 29.8642C16.6456 29.6336 16.9586 29.504 17.285 29.504C17.6111 29.504 17.9242 29.6336 18.1549 29.8642C18.3856 30.0948 18.5153 30.4074 18.5153 30.7335V32.9336C18.5177 33.0966 18.4877 33.2585 18.427 33.4099C18.3664 33.5611 18.276 33.6989 18.1615 33.815C18.047 33.9313 17.9105 34.0235 17.7601 34.0865C17.6096 34.1495 17.448 34.1818 17.285 34.1818V34.175Z" fill="#919191"/>
    <path d="M17.285 4.9162C16.9586 4.9162 16.6456 4.78666 16.4149 4.55609C16.1842 4.32553 16.0546 4.01281 16.0546 3.68673V1.22948C16.0546 0.903399 16.1842 0.590678 16.4149 0.360107C16.6456 0.129535 16.9586 0 17.285 0C17.6111 0 17.9242 0.129535 18.1549 0.360107C18.3856 0.590678 18.5153 0.903399 18.5153 1.22948V3.68843C18.5148 4.01421 18.3849 4.3265 18.1542 4.55669C17.9237 4.7869 17.611 4.9162 17.285 4.9162Z" fill="#919191"/>
    <path d="M33.1515 18.4387H30.8152C30.4889 18.4387 30.1759 18.3091 29.9451 18.0785C29.7144 17.848 29.5849 17.5353 29.5849 17.2092C29.5849 16.8831 29.7144 16.5704 29.9451 16.3398C30.1759 16.1093 30.4889 15.9797 30.8152 15.9797H33.1515C33.4777 15.9797 33.7907 16.1093 34.0214 16.3398C34.2522 16.5704 34.3818 16.8831 34.3818 17.2092C34.3818 17.5353 34.2522 17.848 34.0214 18.0785C33.7907 18.3091 33.4777 18.4387 33.1515 18.4387Z" fill="#919191"/>
    <path d="M3.75469 18.4387H1.43035C1.10404 18.4387 0.791102 18.3091 0.560368 18.0785C0.329637 17.848 0.200012 17.5353 0.200012 17.2092C0.200012 16.8831 0.329637 16.5704 0.560368 16.3398C0.791102 16.1093 1.10404 15.9797 1.43035 15.9797H3.75469C4.081 15.9797 4.39393 16.1093 4.62466 16.3398C4.85539 16.5704 4.98502 16.8831 4.98502 17.2092C4.98502 17.5353 4.85539 17.848 4.62466 18.0785C4.39393 18.3091 4.081 18.4387 3.75469 18.4387Z" fill="#919191"/>
    <path d="M5.90006 29.6948C5.65747 29.6938 5.42061 29.6211 5.21924 29.486C5.01787 29.3508 4.86098 29.1592 4.76829 28.9351C4.67559 28.711 4.65124 28.4646 4.69829 28.2269C4.74532 27.989 4.86167 27.7705 5.03269 27.5986L6.73676 25.8957C6.97463 25.6941 7.28004 25.5897 7.59168 25.6038C7.9033 25.6178 8.19809 25.7492 8.41684 25.9715C8.63557 26.1937 8.76208 26.4903 8.77096 26.802C8.77982 27.1136 8.6704 27.417 8.46467 27.6513L6.76061 29.3236C6.53401 29.556 6.22469 29.6893 5.90006 29.6948Z" fill="#919191"/>
    <path d="M26.7119 8.97929C26.4692 8.97827 26.2323 8.9056 26.0309 8.77045C25.8297 8.63527 25.6727 8.44365 25.58 8.21962C25.4873 7.9956 25.4629 7.7492 25.51 7.51139C25.557 7.27359 25.6734 7.05497 25.8445 6.88305L27.5485 5.18017C27.6622 5.06395 27.798 4.97142 27.9478 4.90795C28.0976 4.84448 28.2585 4.81135 28.4212 4.81044C28.5839 4.80954 28.7451 4.84091 28.8958 4.90272C29.0462 4.96454 29.1829 5.05556 29.2979 5.17053C29.4131 5.28551 29.5041 5.42215 29.566 5.57253C29.6278 5.72293 29.6592 5.88409 29.6583 6.04668C29.6575 6.20929 29.6243 6.37009 29.5607 6.51979C29.4973 6.66949 29.4046 6.80512 29.2884 6.91881L27.5843 8.60295C27.471 8.72037 27.3357 8.81409 27.1859 8.8787C27.0361 8.94331 26.8749 8.9775 26.7119 8.97929Z" fill="#919191"/>
    <path d="M7.85808 8.99627C7.5323 8.99489 7.22037 8.86445 6.99072 8.63356L5.33096 6.97496C5.21464 6.86128 5.12204 6.72564 5.05853 6.57594C4.99502 6.42624 4.96186 6.26544 4.96096 6.10283C4.96007 5.94024 4.99144 5.77908 5.0533 5.62868C5.11516 5.4783 5.20624 5.34166 5.3213 5.22669C5.43636 5.11171 5.57309 5.02069 5.72359 4.95888C5.87408 4.89706 6.03535 4.86569 6.19807 4.8666C6.36077 4.8675 6.52169 4.90064 6.67149 4.9641C6.8213 5.02757 6.95703 5.1201 7.07081 5.23632L8.73056 6.89494C8.90364 7.0669 9.02163 7.28642 9.06952 7.52557C9.1174 7.76472 9.09303 8.01271 8.9995 8.238C8.90596 8.46327 8.7475 8.65566 8.54424 8.79069C8.341 8.92571 8.10214 8.99728 7.85808 8.99627Z" fill="#919191"/>
    <path d="M28.4176 29.5977C28.0918 29.5963 27.7798 29.4659 27.5503 29.235L25.9519 27.6547C25.7484 27.4192 25.6419 27.1156 25.6537 26.8048C25.6654 26.494 25.7947 26.1993 26.0153 25.9798C26.2359 25.7604 26.5316 25.6327 26.8426 25.6225C27.1536 25.6123 27.4571 25.7202 27.6917 25.9246L29.2901 27.5219C29.4568 27.6947 29.5692 27.9127 29.6135 28.1485C29.6577 28.3846 29.632 28.6284 29.5391 28.8498C29.4464 29.0713 29.2906 29.2609 29.0914 29.3949C28.892 29.5291 28.6579 29.6019 28.4176 29.6045V29.5977Z" fill="#919191"/>
</svg>
