<svg width="29" height="26" viewBox="0 0 29 26" fill="none" xmlns="http://www.w3.org/2000/svg">
<g id="Component 4">
<path id="Vector" d="M28.4426 9.84848C28.3026 9.41515 27.9225 9.1 27.4625 9.04091L19.2609 7.87879L15.6002 0.669697C15.4002 0.256061 14.9601 0 14.5 0C14.0399 0 13.5998 0.256061 13.3998 0.669697L9.7391 7.87879L1.53754 9.04091C1.07745 9.1 0.697382 9.41515 0.557355 9.84848C0.417329 10.2818 0.537351 10.7545 0.877416 11.0697L6.79854 16.6833L5.39827 24.6015C5.31826 25.0545 5.5183 25.5076 5.87836 25.7636C6.09841 25.9212 6.33845 26 6.5985 26C6.79854 26 6.99858 25.9606 7.17861 25.8621L14.5 22.1197L21.8214 25.8621C22.0014 25.9606 22.2015 26 22.4015 26C22.6615 26 22.9016 25.9212 23.1216 25.7636C23.5017 25.4879 23.6817 25.0545 23.6017 24.6015L22.2015 16.6833L28.1226 11.0697C28.4626 10.7545 28.5827 10.2818 28.4426 9.84848Z" fill="#CBCBCC"/>
</g>
</svg>
