<svg width="36" height="36" viewBox="0 0 36 36" fill="none" xmlns="http://www.w3.org/2000/svg">
<path d="M29.3541 15.449C29.2421 15.1118 28.938 14.8664 28.57 14.8205L22.0087 13.9159L19.0802 8.30448C18.9202 7.98252 18.5681 7.7832 18.2 7.7832C17.8319 7.7832 17.4798 7.98252 17.3198 8.30448L14.3913 13.9159L7.83003 14.8205C7.46196 14.8664 7.15791 15.1118 7.04588 15.449C6.93386 15.7863 7.02988 16.1543 7.30193 16.3996L12.0388 20.7691L10.9186 26.9325C10.8546 27.2851 11.0146 27.6378 11.3027 27.837C11.4787 27.9597 11.6708 28.021 11.8788 28.021C12.0388 28.021 12.1989 27.9904 12.3429 27.9137L18.2 25.0007L24.0571 27.9137C24.2011 27.9904 24.3612 28.021 24.5212 28.021C24.7292 28.021 24.9213 27.9597 25.0973 27.837C25.4014 27.6224 25.5454 27.2851 25.4814 26.9325L24.3612 20.7691L29.0981 16.3996C29.3701 16.1543 29.4662 15.7863 29.3541 15.449Z" fill="#BEC1C8"/>
</svg>
