<svg width="36" height="36" viewBox="0 0 36 36" fill="none" xmlns="http://www.w3.org/2000/svg">
<path fill-rule="evenodd" clip-rule="evenodd" d="M7.5 10.4C7.5 9.07452 8.57452 8 9.9 8H25.9C27.2255 8 28.3 9.07452 28.3 10.4V26.4C28.3 27.7255 27.2255 28.8 25.9 28.8H9.9C8.57452 28.8 7.5 27.7255 7.5 26.4V10.4ZM10.7002 12.6C10.7002 12.2686 10.9688 12 11.3002 12H20.5002C20.8316 12 21.1002 12.2686 21.1002 12.6C21.1002 12.9314 20.8316 13.2 20.5002 13.2H11.3002C10.9688 13.2 10.7002 12.9314 10.7002 12.6ZM11.3002 15.5293C10.9688 15.5293 10.7002 15.7979 10.7002 16.1293C10.7002 16.4607 10.9688 16.7293 11.3002 16.7293H24.5002C24.8316 16.7293 25.1002 16.4607 25.1002 16.1293C25.1002 15.7979 24.8316 15.5293 24.5002 15.5293H11.3002ZM10.7002 19.6586C10.7002 19.3272 10.9688 19.0586 11.3002 19.0586H24.5002C24.8316 19.0586 25.1002 19.3272 25.1002 19.6586C25.1002 19.99 24.8316 20.2586 24.5002 20.2586H11.3002C10.9688 20.2586 10.7002 19.99 10.7002 19.6586ZM11.3002 23.3887C10.9688 23.3887 10.7002 23.6573 10.7002 23.9887C10.7002 24.32 10.9688 24.5887 11.3002 24.5887H24.5002C24.8316 24.5887 25.1002 24.32 25.1002 23.9887C25.1002 23.6573 24.8316 23.3887 24.5002 23.3887H11.3002Z" fill="#BEC1C8"/>
</svg>
