<svg width="36" height="36" viewBox="0 0 36 36" fill="none" xmlns="http://www.w3.org/2000/svg">
<path fill-rule="evenodd" clip-rule="evenodd" d="M20.0392 6.71265C19.9123 6.28967 19.523 6 19.0814 6H17.4237C16.9821 6 16.5928 6.28967 16.4659 6.71265L15.7578 9.07302C15.6641 9.38518 15.4226 9.62832 15.1203 9.75007C14.3685 10.0529 13.6706 10.4615 13.0451 10.9574C12.7871 11.1619 12.4523 11.2508 12.1322 11.174L9.83487 10.6229C9.40544 10.5199 8.95929 10.7107 8.73722 11.0924L7.90363 12.5253C7.68156 12.907 7.73617 13.3892 8.03797 13.7116L9.68094 15.4666C9.90254 15.7033 9.99159 16.0323 9.94634 16.3534C9.89196 16.7393 9.86384 17.1336 9.86384 17.5345C9.86384 17.9557 9.89489 18.3697 9.95481 18.7742C10.0031 19.1002 9.91277 19.435 9.68599 19.6741L8.01207 21.4387C7.70814 21.759 7.65036 22.2409 7.86989 22.624L8.694 24.0624C8.91354 24.4455 9.35843 24.6393 9.78852 24.5392L12.2354 23.9692C12.5487 23.8963 12.8757 23.9817 13.1303 24.1783C13.7338 24.6442 14.4025 25.0298 15.1203 25.3189C15.4227 25.4407 15.6641 25.6838 15.7578 25.996L16.4659 28.3563C16.5928 28.7793 16.9821 29.069 17.4237 29.069H19.0814C19.523 29.069 19.9123 28.7793 20.0392 28.3563L20.7474 25.996C20.841 25.6838 21.0825 25.4407 21.3848 25.3189C22.0913 25.0344 22.7502 24.6564 23.3461 24.2004C23.6023 24.0043 23.9306 23.9204 24.2444 23.9956L26.7456 24.5957C27.175 24.6987 27.6212 24.5078 27.8432 24.1261L28.6768 22.6932C28.8989 22.3115 28.8443 21.8293 28.5425 21.507L26.8154 19.6621C26.5921 19.4236 26.5035 19.0917 26.5512 18.7684C26.6105 18.3657 26.6413 17.9537 26.6413 17.5345C26.6413 17.1742 26.6186 16.8192 26.5745 16.4709C26.5342 16.1521 26.6258 15.8274 26.847 15.5942L28.5682 13.7798C28.8722 13.4594 28.9299 12.9776 28.7104 12.5944L27.8863 11.1561C27.6668 10.7729 27.2219 10.5791 26.7918 10.6793L24.4323 11.2289C24.1109 11.3037 23.7758 11.2119 23.519 11.0045C22.8785 10.4873 22.1603 10.0624 21.3848 9.75007C21.0825 9.62832 20.841 9.38518 20.7474 9.07302L20.0392 6.71265ZM18.253 21.7291C20.5694 21.7291 22.4473 19.8512 22.4473 17.5347C22.4473 15.2182 20.5694 13.3403 18.253 13.3403C15.9365 13.3403 14.0586 15.2182 14.0586 17.5347C14.0586 19.8512 15.9365 21.7291 18.253 21.7291Z" fill="#BEC1C8"/>
</svg>
