<svg width="18" height="17" viewBox="0 0 18 17" fill="none" xmlns="http://www.w3.org/2000/svg">
    <path d="M13.3 5.27231C13.3 6.29011 12.8386 7.47306 12.1611 8.64449C11.4903 9.80404 10.6421 10.8944 9.94212 11.713C9.43599 12.305 8.56392 12.305 8.05778 11.713C7.3578 10.8944 6.50956 9.80404 5.83885 8.64449C5.16126 7.47306 4.69995 6.29011 4.69995 5.27231C4.69995 2.59144 6.66825 0.5 8.99995 0.5C11.3316 0.5 13.3 2.59144 13.3 5.27231Z" stroke="#FE8C59"/>
    <path d="M10.6334 5.05262C10.6334 6.04117 9.87824 6.79823 9.00003 6.79823C8.12182 6.79823 7.3667 6.04117 7.3667 5.05262C7.3667 4.06407 8.12182 3.30701 9.00003 3.30701C9.87824 3.30701 10.6334 4.06407 10.6334 5.05262Z" stroke="#FE8C59"/>
    <path d="M1 16H17" stroke="#FE8C59" stroke-linecap="round"/>
</svg>
