<svg width="27" height="28" viewBox="0 0 27 28" fill="none" xmlns="http://www.w3.org/2000/svg">
<path id="&#237;&#140;&#168;&#236;&#138;&#164; 783" fill-rule="evenodd" clip-rule="evenodd" d="M13.3238 17.4997C14.0264 17.4997 14.7133 17.2945 15.2975 16.9099C15.8817 16.5254 16.337 15.9788 16.6059 15.3393C16.8748 14.6998 16.9451 13.9961 16.8081 13.3172C16.671 12.6384 16.3326 12.0148 15.8358 11.5253C15.339 11.0359 14.706 10.7025 14.0168 10.5675C13.3277 10.4325 12.6134 10.5018 11.9643 10.7667C11.3151 11.0316 10.7603 11.4801 10.3699 12.0556C9.97953 12.6312 9.7712 13.3078 9.7712 14C9.77401 14.9273 10.1492 15.8159 10.8148 16.4716C11.4805 17.1273 12.3824 17.497 13.3238 17.4997ZM6.04023 6.29974C7.25102 5.20892 8.71522 4.42772 10.3042 4.0248L11.7248 0H15.2741L16.6958 4.0248C18.2552 4.4994 19.7042 5.27248 20.9598 6.29974L25.2237 5.42428L27 8.57467L24.1577 11.7251C24.3049 12.4742 24.3644 13.2375 24.335 14C24.335 14.6997 24.1577 15.5784 24.1577 16.2749L27 19.4253L25.2237 22.5757L20.9598 21.7003C19.749 22.7911 18.2848 23.5723 16.6958 23.9752L15.2741 28H11.7216L10.301 23.9752C8.7416 23.5006 7.2926 22.7275 6.03704 21.7003L1.77309 22.5757L0 19.4253L2.84229 16.2749C2.69508 15.5258 2.63557 14.7625 2.66496 14C2.66496 13.3003 2.84229 12.4216 2.84229 11.7251L0 8.57467L1.77628 5.42428L6.04023 6.29974Z" fill="url(#paint0_linear_143_7621)"/>
<defs>
<linearGradient id="paint0_linear_143_7621" x1="0" y1="0" x2="27" y2="28" gradientUnits="userSpaceOnUse">
<stop stop-color="#FF9A44"/>
<stop offset="1" stop-color="#FD7878"/>
</linearGradient>
</defs>
</svg>
