<svg width="18" height="20" viewBox="0 0 18 20" fill="none" xmlns="http://www.w3.org/2000/svg">
<g clip-path="url(#clip0_5515_196)">
<path d="M8.99615 0.593806C9.0274 0.7774 9.62506 4.28521 9.62506 5.62506C9.62506 7.66802 8.53912 9.12506 6.93365 9.71099L7.43756 19.0118C7.4649 19.5469 7.03912 20.0001 6.50006 20.0001H4.00006C3.4649 20.0001 3.03522 19.5508 3.06256 19.0118L3.56647 9.71099C1.95709 9.12506 0.875061 7.66412 0.875061 5.62506C0.875061 4.28131 1.47272 0.7774 1.50397 0.593806C1.62897 -0.199163 3.2735 -0.210882 3.37506 0.636775V6.1524C3.42584 6.28521 3.9649 6.2774 4.00006 6.1524C4.05475 5.16412 4.30865 0.7149 4.31256 0.613337C4.44147 -0.199163 6.05865 -0.199163 6.18365 0.613337C6.19147 0.718806 6.44147 5.16412 6.49615 6.1524C6.53131 6.2774 7.07428 6.28521 7.12115 6.1524V0.636775C7.22272 -0.206975 8.87115 -0.199163 8.99615 0.593806ZM13.6524 11.754L13.0665 18.9844C13.0196 19.5313 13.4532 20.0001 14.0001 20.0001H16.1876C16.7071 20.0001 17.1251 19.5821 17.1251 19.0626V0.937556C17.1251 0.421931 16.7071 5.58303e-05 16.1876 5.58303e-05C12.9649 5.58303e-05 7.53912 6.97271 13.6524 11.754Z" fill="#FF9522"/>
</g>
<defs>
<clipPath id="clip0_5515_196">
<rect width="16.25" height="20" fill="white" transform="translate(0.875)"/>
</clipPath>
</defs>
</svg>
