<svg width="21" height="21" viewBox="0 0 21 21" fill="none" xmlns="http://www.w3.org/2000/svg">
<path id="Vector (Stroke)" fill-rule="evenodd" clip-rule="evenodd" d="M19.9291 1.45304C20.5816 2.10725 20.5802 3.16653 19.926 3.81902L12.8203 10.9061L19.8917 17.9775C20.545 18.6308 20.545 19.6901 19.8917 20.3434C19.2383 20.9968 18.179 20.9968 17.5257 20.3434L10.4512 13.269L3.34243 20.3592C2.68823 21.0117 1.62894 21.0103 0.976452 20.3561C0.323961 19.7019 0.325349 18.6426 0.979553 17.9901L8.08525 10.903L0.963806 3.78157C0.310458 3.12822 0.310458 2.06894 0.963806 1.41559C1.61715 0.762241 2.67644 0.76224 3.32979 1.41559L10.4543 8.54013L17.5631 1.44994C18.2173 0.797451 19.2766 0.79884 19.9291 1.45304Z" fill="#ADADAD"/>
</svg>
