<svg width="17" height="16" viewBox="0 0 17 16" fill="none" xmlns="http://www.w3.org/2000/svg">
<circle cx="8.5" cy="8" r="8" fill="#DFDFDF"/>
<path fill-rule="evenodd" clip-rule="evenodd" d="M12.4954 4.45315C12.7554 4.71384 12.7548 5.13595 12.4942 5.39596L9.66264 8.22007L12.4805 11.0379C12.7408 11.2982 12.7408 11.7204 12.4805 11.9807C12.2201 12.2411 11.798 12.2411 11.5377 11.9807L8.71859 9.16164L5.88584 11.987C5.62515 12.247 5.20304 12.2464 4.94303 11.9857C4.68302 11.725 4.68358 11.3029 4.94427 11.0429L7.77578 8.21883L4.93799 5.38104C4.67764 5.12069 4.67764 4.69858 4.93799 4.43823C5.19834 4.17788 5.62045 4.17788 5.8808 4.43823L8.71983 7.27726L11.5526 4.45192C11.8133 4.19191 12.2354 4.19246 12.4954 4.45315Z" fill="black" fill-opacity="0.5"/>
</svg>
