<svg width="11" height="10" viewBox="0 0 11 10" fill="none" xmlns="http://www.w3.org/2000/svg">
<path fill-rule="evenodd" clip-rule="evenodd" d="M10.5 5.01979C10.4995 5.36497 10.2194 5.64442 9.87418 5.64397L6.125 5.63905L6.125 9.375C6.125 9.72018 5.84518 10 5.5 10C5.15482 10 4.875 9.72018 4.875 9.375L4.875 5.63742L1.12418 5.6325C0.779003 5.63205 0.499548 5.35186 0.500001 5.00668C0.500453 4.6615 0.780641 4.38205 1.12582 4.3825L4.875 4.38741L4.875 0.625C4.875 0.279822 5.15482 -2.33645e-07 5.5 -2.18557e-07C5.84518 -2.03469e-07 6.125 0.279822 6.125 0.625L6.125 4.38905L9.87582 4.39397C10.221 4.39442 10.5005 4.67461 10.5 5.01979Z" fill="white"/>
</svg>
