<svg xmlns="http://www.w3.org/2000/svg" width="40" height="41" viewBox="0 0 40 41" fill="none">
  <mask id="mask0_3391_32222" style="mask-type:alpha" maskUnits="userSpaceOnUse" x="0" y="0" width="40" height="41">
    <rect y="0.5" width="40" height="40" fill="#D9D9D9"/>
  </mask>
  <g mask="url(#mask0_3391_32222)">
    <path d="M18.7435 21.7565H8.2565C7.9005 21.7565 7.60217 21.6353 7.3615 21.393C7.1205 21.151 7 20.8512 7 20.4935C7 20.1355 7.1205 19.8377 7.3615 19.6C7.60217 19.3623 7.9005 19.2435 8.2565 19.2435H18.7435V8.7565C18.7435 8.4005 18.8647 8.10217 19.107 7.8615C19.349 7.6205 19.6488 7.5 20.0065 7.5C20.3645 7.5 20.6623 7.6205 20.9 7.8615C21.1377 8.10217 21.2565 8.4005 21.2565 8.7565V19.2435H31.7435C32.0995 19.2435 32.3978 19.3647 32.6385 19.607C32.8795 19.849 33 20.1488 33 20.5065C33 20.8645 32.8795 21.1623 32.6385 21.4C32.3978 21.6377 32.0995 21.7565 31.7435 21.7565H21.2565V32.2435C21.2565 32.5995 21.1353 32.8978 20.893 33.1385C20.651 33.3795 20.3512 33.5 19.9935 33.5C19.6355 33.5 19.3377 33.3795 19.1 33.1385C18.8623 32.8978 18.7435 32.5995 18.7435 32.2435V21.7565Z" fill="#989AA0"/>
  </g>
</svg>
