<svg width="13" height="13" viewBox="0 0 13 13" fill="none" xmlns="http://www.w3.org/2000/svg">
<rect x="0.486694" y="5.23853" width="3.20605" height="6.90196" rx="1" fill="#FF9522"/>
<path fill-rule="evenodd" clip-rule="evenodd" d="M4.70642 5.62702C4.70642 5.30143 4.87359 5.00499 5.10711 4.77811C5.65996 4.24098 6.02571 3.45726 5.87608 2.2119C5.80864 1.6506 6.13598 1.05934 6.6909 1.16743C7.3419 1.29424 7.96593 1.75059 7.96593 2.92458V3.65074C7.96593 4.20303 8.41365 4.65033 8.96593 4.65033H10.9053C11.4903 4.65033 11.9504 5.15035 11.9018 5.73337L11.4933 10.6354C11.4501 11.1536 11.0169 11.5523 10.4968 11.5523L5.70645 11.5525C5.15416 11.5525 4.70642 11.1048 4.70642 10.5525V5.62702Z" fill="#FF9522"/>
<path d="M5.87608 2.2119L5.50376 2.25664V2.25664L5.87608 2.2119ZM6.6909 1.16743L6.6192 1.53551L6.6909 1.16743ZM11.9018 5.73337L11.5281 5.70223L11.9018 5.73337ZM11.4933 10.6354L11.867 10.6665L11.4933 10.6354ZM10.4968 11.5523L10.4968 11.9273H10.4968L10.4968 11.5523ZM5.70645 11.5525L5.70644 11.1775L5.70645 11.5525ZM5.10711 4.77811L4.8458 4.50915L5.10711 4.77811ZM5.50376 2.25664C5.64035 3.39343 5.3094 4.05873 4.8458 4.50915L5.36843 5.04707C6.01053 4.42323 6.41108 3.52108 6.2484 2.16717L5.50376 2.25664ZM6.7626 0.799348C6.31539 0.712236 5.9553 0.919404 5.74264 1.22395C5.54013 1.51398 5.46059 1.89735 5.50376 2.25664L6.2484 2.16717C6.22413 1.96515 6.27454 1.77223 6.35757 1.65333C6.43046 1.54895 6.51149 1.51453 6.6192 1.53551L6.7626 0.799348ZM8.34093 2.92458C8.34093 2.26947 8.16546 1.76849 7.85715 1.40913C7.55098 1.05227 7.14749 0.874321 6.7626 0.799348L6.6192 1.53551C6.88531 1.58735 7.11933 1.70098 7.28793 1.89749C7.45439 2.09151 7.59093 2.4057 7.59093 2.92458H8.34093ZM8.34093 3.65074V2.92458H7.59093V3.65074H8.34093ZM8.96593 4.27533C8.62055 4.27533 8.34093 3.99572 8.34093 3.65074H7.59093C7.59093 4.41034 8.20674 5.02533 8.96593 5.02533V4.27533ZM10.9053 4.27533H8.96593V5.02533H10.9053V4.27533ZM12.2755 5.76452C12.3423 4.96286 11.7097 4.27533 10.9053 4.27533V5.02533C11.2709 5.02533 11.5585 5.33784 11.5281 5.70223L12.2755 5.76452ZM11.867 10.6665L12.2755 5.76452L11.5281 5.70223L11.1196 10.6042L11.867 10.6665ZM10.4968 11.9273C11.2119 11.9273 11.8076 11.3791 11.867 10.6665L11.1196 10.6042C11.0926 10.9281 10.8218 11.1773 10.4968 11.1773L10.4968 11.9273ZM5.70646 11.9275L10.4968 11.9273L10.4968 11.1773L5.70644 11.1775L5.70646 11.9275ZM4.33142 5.62702V10.5525H5.08142V5.62702H4.33142ZM5.70644 11.1775C5.36125 11.1775 5.08142 10.8977 5.08142 10.5525H4.33142C4.33142 11.3119 4.94706 11.9275 5.70646 11.9275L5.70644 11.1775ZM4.8458 4.50915C4.56477 4.78219 4.33142 5.16969 4.33142 5.62702H5.08142C5.08142 5.43317 5.18242 5.22779 5.36843 5.04707L4.8458 4.50915Z" fill="#FF9522"/>
</svg>
