<svg width="16" height="12" viewBox="0 0 16 12" fill="none" xmlns="http://www.w3.org/2000/svg">
<path fill-rule="evenodd" clip-rule="evenodd" d="M1.41406 2.66016C1.96635 2.66016 2.41406 2.21244 2.41406 1.66016C2.41406 1.10787 1.96635 0.660156 1.41406 0.660156C0.861778 0.660156 0.414062 1.10787 0.414062 1.66016C0.414062 2.21244 0.861778 2.66016 1.41406 2.66016ZM4.7959 1.16016C4.51976 1.16016 4.2959 1.38401 4.2959 1.66016C4.2959 1.9363 4.51976 2.16016 4.7959 2.16016H15.0869C15.3631 2.16016 15.5869 1.9363 15.5869 1.66016C15.5869 1.38401 15.3631 1.16016 15.0869 1.16016H4.7959ZM4.7959 5.50024C4.51976 5.50024 4.2959 5.7241 4.2959 6.00024C4.2959 6.27639 4.51976 6.50024 4.7959 6.50024H15.0869C15.3631 6.50024 15.5869 6.27639 15.5869 6.00024C15.5869 5.7241 15.3631 5.50024 15.0869 5.50024H4.7959ZM4.2959 10.3403C4.2959 10.0642 4.51976 9.84033 4.7959 9.84033H15.0869C15.3631 9.84033 15.5869 10.0642 15.5869 10.3403C15.5869 10.6165 15.3631 10.8403 15.0869 10.8403H4.7959C4.51976 10.8403 4.2959 10.6165 4.2959 10.3403ZM2.41406 6.00024C2.41406 6.55253 1.96635 7.00024 1.41406 7.00024C0.861778 7.00024 0.414062 6.55253 0.414062 6.00024C0.414062 5.44796 0.861778 5.00024 1.41406 5.00024C1.96635 5.00024 2.41406 5.44796 2.41406 6.00024ZM1.41406 11.3403C1.96635 11.3403 2.41406 10.8926 2.41406 10.3403C2.41406 9.78805 1.96635 9.34033 1.41406 9.34033C0.861778 9.34033 0.414062 9.78805 0.414062 10.3403C0.414062 10.8926 0.861778 11.3403 1.41406 11.3403Z" fill="#FF9522"/>
</svg>
