<svg xmlns="http://www.w3.org/2000/svg" width="20" height="20" viewBox="0 0 20 20" fill="none">
  <mask id="mask0_5172_1815" style="mask-type:alpha" maskUnits="userSpaceOnUse" x="0" y="0" width="20" height="20">
    <rect width="20" height="20" fill="#D9D9D9"/>
  </mask>
  <g mask="url(#mask0_5172_1815)">
    <path d="M12.3592 10.0001L6.08188 3.72279C5.91633 3.55723 5.8357 3.36015 5.84001 3.13154C5.84431 2.90293 5.92924 2.70578 6.0948 2.54008C6.26035 2.37453 6.45744 2.29175 6.68605 2.29175C6.91466 2.29175 7.11181 2.37453 7.27751 2.54008L13.6573 8.93279C13.8079 9.08349 13.9195 9.2523 13.9921 9.43925C14.0649 9.62619 14.1013 9.81314 14.1013 10.0001C14.1013 10.187 14.0649 10.374 13.9921 10.5609C13.9195 10.7479 13.8079 10.9167 13.6573 11.0674L7.26459 17.4601C7.09904 17.6256 6.9041 17.7063 6.6798 17.702C6.45535 17.6977 6.26035 17.6127 6.0948 17.4472C5.92924 17.2816 5.84647 17.0845 5.84647 16.8559C5.84647 16.6273 5.92924 16.4302 6.0948 16.2645L12.3592 10.0001Z" fill="#989AA0"/>
  </g>
</svg>