<svg xmlns="http://www.w3.org/2000/svg" width="18" height="18" viewBox="0 0 18 18" fill="none">
  <mask id="mask0_3391_32845" style="mask-type:alpha" maskUnits="userSpaceOnUse" x="0" y="0" width="18" height="18">
    <rect width="18" height="18" fill="#D9D9D9"/>
  </mask>
  <g mask="url(#mask0_3391_32845)">
    <path d="M11.1213 9L5.47174 3.35044C5.32274 3.20144 5.25018 3.02406 5.25405 2.81831C5.25793 2.61256 5.33437 2.43512 5.48337 2.286C5.63237 2.137 5.80974 2.0625 6.01549 2.0625C6.22124 2.0625 6.39868 2.137 6.5478 2.286L12.2896 8.03944C12.4251 8.17506 12.5256 8.327 12.5909 8.49525C12.6564 8.6635 12.6892 8.83175 12.6892 9C12.6892 9.16825 12.6564 9.3365 12.5909 9.50475C12.5256 9.673 12.4251 9.82494 12.2896 9.96056L6.53618 15.714C6.38718 15.863 6.21174 15.9356 6.00987 15.9317C5.80787 15.9278 5.63237 15.8514 5.48337 15.7024C5.33437 15.5534 5.25987 15.376 5.25987 15.1703C5.25987 14.9645 5.33437 14.7871 5.48337 14.6379L11.1213 9Z" fill="#989AA0"/>
  </g>
</svg>