<svg width="25" height="24" viewBox="0 0 25 24" fill="none" xmlns="http://www.w3.org/2000/svg">
<mask id="mask0_3391_31219" style="mask-type:alpha" maskUnits="userSpaceOnUse" x="0" y="0" width="25" height="24">
<rect x="0.5" width="24" height="24" fill="#D9D9D9"/>
</mask>
<g mask="url(#mask0_3391_31219)">
<path d="M13.1316 11.7442V8.42105C13.1316 8.24211 13.071 8.09207 12.9499 7.97095C12.8288 7.84996 12.6787 7.78947 12.4998 7.78947C12.3207 7.78947 12.1707 7.84996 12.0499 7.97095C11.9289 8.09207 11.8684 8.24211 11.8684 8.42105V11.9385C11.8684 12.0376 11.8868 12.1336 11.9236 12.2265C11.9602 12.3194 12.018 12.4053 12.0968 12.4842L14.9811 15.3684C15.0975 15.4851 15.2441 15.5447 15.4206 15.5474C15.5972 15.55 15.7465 15.4904 15.8684 15.3684C15.9904 15.2465 16.0514 15.0985 16.0514 14.9246C16.0514 14.7509 15.9904 14.603 15.8684 14.4811L13.1316 11.7442ZM12.5015 20C11.3949 20 10.3549 19.79 9.38126 19.3701C8.40765 18.9502 7.56077 18.3803 6.84063 17.6604C6.12049 16.9406 5.55032 16.094 5.13011 15.1208C4.71003 14.1476 4.5 13.1079 4.5 12.0015C4.5 10.8949 4.70996 9.85488 5.12989 8.88126C5.54982 7.90765 6.11972 7.06077 6.83958 6.34063C7.55944 5.62049 8.40597 5.05032 9.37916 4.63011C10.3524 4.21003 11.3921 4 12.4985 4C13.6051 4 14.6451 4.20996 15.6187 4.62989C16.5924 5.04982 17.4392 5.61972 18.1594 6.33958C18.8795 7.05944 19.4497 7.90597 19.8699 8.87916C20.29 9.85235 20.5 10.8921 20.5 11.9985C20.5 13.1051 20.29 14.1451 19.8701 15.1187C19.4502 16.0924 18.8803 16.9392 18.1604 17.6594C17.4406 18.3795 16.594 18.9497 15.6208 19.3699C14.6476 19.79 13.6079 20 12.5015 20Z" fill="#FF9522"/>
</g>
</svg>
