<svg xmlns="http://www.w3.org/2000/svg" width="50" height="50" viewBox="0 0 50 50" fill="none">
  <g filter="url(#filter0_d_6899_10717)">
    <path d="M42.076 19.8898C41.8556 19.3515 41.5351 18.8609 41.1344 18.4521C40.7272 18.0365 40.2531 17.7095 39.7188 17.4914C39.4985 17.396 39.2781 17.3278 39.0512 17.2734C39.1113 16.9872 39.1379 16.6874 39.1379 16.3875C39.1379 15.8015 39.0244 15.2293 38.804 14.691C38.5837 14.1527 38.2631 13.6621 37.8625 13.2533C37.4553 12.8377 36.981 12.5106 36.4469 12.2926C35.9194 12.0677 35.3518 11.9519 34.7776 11.9519C34.2034 11.9519 33.6424 12.0677 33.1081 12.2926C33.0347 12.3266 32.9613 12.3607 32.8879 12.3948C32.8812 11.8293 32.7677 11.2705 32.5606 10.7459C32.3403 10.2076 32.0198 9.71704 31.6191 9.30821C31.2119 8.88577 30.7311 8.55871 30.2035 8.34069C29.6759 8.11583 29.1084 8 28.5342 8C27.9598 8 27.399 8.11583 26.8647 8.34069C26.3373 8.56553 25.8565 8.89258 25.4491 9.30139C25.2688 9.48537 25.1086 9.67614 24.9683 9.88737C24.8215 9.67614 24.6613 9.48537 24.4875 9.30139C24.0936 8.88577 23.6128 8.55871 23.0854 8.34069C22.5578 8.11583 21.9903 8 21.4159 8C20.8417 8 20.2808 8.11583 19.7466 8.34069C19.219 8.56553 18.7382 8.89258 18.331 9.30139C17.9236 9.71022 17.6031 10.2008 17.3895 10.7391C17.1758 11.2637 17.0689 11.8224 17.0622 12.388C16.4814 12.1018 15.8336 11.9451 15.1725 11.9451C14.5983 11.9451 14.0374 12.0609 13.5032 12.2858C12.9824 12.5106 12.5016 12.8377 12.0942 13.2465C11.687 13.6621 11.3664 14.1459 11.1528 14.6842C10.9324 15.2224 10.8188 15.8015 10.8188 16.3807C10.8188 16.6805 10.8456 16.9735 10.9057 17.2664C10.6786 17.321 10.4517 17.396 10.2379 17.4845C9.71043 17.7095 9.22964 18.0365 8.82225 18.4453C8.41502 18.8609 8.0945 19.3447 7.8807 19.8829C7.6605 20.4212 7.54688 21.0004 7.54688 21.5796C7.54688 22.7582 8.00763 23.8893 8.82225 24.7206C9.63703 25.5519 10.7454 26.022 11.9006 26.022C13.0558 26.022 14.1643 25.5519 14.9789 24.7206C15.0458 24.6524 15.1124 24.5843 15.1725 24.5093V24.8569H34.7776V24.5093C34.8377 24.5843 34.9045 24.6524 34.9712 24.7206C35.7858 25.5519 36.8943 26.022 38.0495 26.022C39.2047 26.022 40.3132 25.5519 41.1279 24.7206C41.9425 23.8893 42.4032 22.7582 42.4032 21.5796C42.4098 21.0072 42.2963 20.4348 42.076 19.8898Z" fill="white"/>
    <path d="M33.5838 41.9994C33.8108 41.9994 33.9645 41.7746 33.8976 41.5496L33.6372 40.7253C33.5904 40.5754 33.6505 40.405 33.7842 40.33C33.9577 40.2278 34.2182 40.0779 34.5454 39.8734C35.1262 39.5193 35.9142 39.0082 36.7622 38.3813C36.9625 38.2382 37.1563 38.0952 37.3499 37.9452C37.7372 37.6522 38.1244 37.3252 38.5118 36.971C38.5985 36.896 38.6786 36.8211 38.7655 36.746H38.7522C41.0024 34.5726 43.0391 31.3293 43.0391 26.8868V22.4306C43.0391 22.09 42.7453 21.8311 42.418 21.8787C40.2412 22.2195 32.6623 23.3165 25.0367 23.3165C17.3977 23.3165 9.71194 22.2195 7.52178 21.8787C7.20782 21.8311 6.91406 22.09 6.91406 22.4306V26.8868C6.91406 31.3155 8.93066 34.552 11.2144 36.746H11.1944C11.3412 36.8823 11.4881 37.0118 11.6349 37.1344C12.1758 37.6181 12.7235 38.0542 13.2576 38.4291C13.952 38.9401 14.5998 39.3624 15.1207 39.6963C15.5947 39.9894 15.9686 40.2075 16.189 40.33C16.3227 40.405 16.3893 40.5684 16.3427 40.7253L16.0956 41.5496C16.0287 41.7676 16.1824 41.9994 16.4094 41.9994H33.5838Z" fill="url(#paint0_linear_6899_10717)"/>
  </g>
  <defs>
    <filter id="filter0_d_6899_10717" x="2.84221" y="5.55689" width="44.2687" height="42.1432" filterUnits="userSpaceOnUse" color-interpolation-filters="sRGB">
      <feFlood flood-opacity="0" result="BackgroundImageFix"/>
      <feColorMatrix in="SourceAlpha" type="matrix" values="0 0 0 0 0 0 0 0 0 0 0 0 0 0 0 0 0 0 127 0" result="hardAlpha"/>
      <feOffset dy="1.62874"/>
      <feGaussianBlur stdDeviation="2.03593"/>
      <feColorMatrix type="matrix" values="0 0 0 0 0 0 0 0 0 0 0 0 0 0 0 0 0 0 0.1 0"/>
      <feBlend mode="normal" in2="BackgroundImageFix" result="effect1_dropShadow_6899_10717"/>
      <feBlend mode="normal" in="SourceGraphic" in2="effect1_dropShadow_6899_10717" result="shape"/>
    </filter>
    <linearGradient id="paint0_linear_6899_10717" x1="11.176" y1="22.6681" x2="39.0083" y2="41.2982" gradientUnits="userSpaceOnUse">
      <stop stop-color="#F7ECD1"/>
      <stop offset="1" stop-color="#F4B59E"/>
    </linearGradient>
  </defs>
</svg>