<svg width="63" height="37" viewBox="0 0 63 37" fill="none" xmlns="http://www.w3.org/2000/svg">
    <path d="M49.9668 13.1626C49.7475 12.6269 49.4286 12.1387 49.0299 11.7319C48.6247 11.3184 48.1529 10.993 47.6212 10.776C47.402 10.681 47.1827 10.6132 46.9569 10.559C47.0167 10.2742 47.0431 9.97596 47.0431 9.67751C47.0431 9.09444 46.9302 8.52503 46.711 7.98932C46.4917 7.45371 46.1727 6.96554 45.774 6.55874C45.3688 6.14516 44.8969 5.81971 44.3654 5.60275C43.8406 5.379 43.2757 5.26373 42.7043 5.26373C42.1329 5.26373 41.5748 5.379 41.0431 5.60275C40.97 5.63664 40.897 5.67055 40.824 5.70445C40.8173 5.1417 40.7044 4.58573 40.4983 4.06367C40.279 3.52804 39.9601 3.03988 39.5614 2.63307C39.1562 2.2127 38.6778 1.88726 38.1528 1.67031C37.6278 1.44656 37.0631 1.3313 36.4917 1.3313C35.9201 1.3313 35.3621 1.44656 34.8304 1.67031C34.3056 1.89404 33.8272 2.21949 33.4218 2.62629C33.2424 2.80936 33.0829 2.99919 32.9434 3.20937C32.7973 2.99919 32.6378 2.80936 32.4649 2.62629C32.073 2.2127 31.5945 1.88726 31.0697 1.67031C30.5447 1.44656 29.98 1.3313 29.4085 1.3313C28.8371 1.3313 28.2789 1.44656 27.7474 1.67031C27.2224 1.89404 26.744 2.21949 26.3387 2.62629C25.9333 3.0331 25.6144 3.52126 25.4018 4.05688C25.1892 4.57895 25.0829 5.13492 25.0762 5.69766C24.4982 5.41289 23.8536 5.25695 23.1958 5.25695C22.6244 5.25695 22.0663 5.37222 21.5347 5.59596C21.0164 5.81971 20.538 6.14516 20.1326 6.55196C19.7274 6.96554 19.4085 7.44693 19.1959 7.98255C18.9766 8.51812 18.8635 9.09444 18.8635 9.67076C18.8635 9.96904 18.8902 10.2606 18.95 10.5521C18.724 10.6064 18.4982 10.681 18.2854 10.7691C17.7606 10.993 17.2822 11.3184 16.8768 11.7252C16.4716 12.1387 16.1526 12.6202 15.9399 13.1557C15.7208 13.6913 15.6077 14.2677 15.6077 14.844C15.6077 16.0169 16.0662 17.1424 16.8768 17.9696C17.6876 18.7968 18.7905 19.2646 19.94 19.2646C21.0895 19.2646 22.1926 18.7968 23.0032 17.9696C23.0697 17.9017 23.136 17.8339 23.1958 17.7593V18.1052H42.7043V17.7593C42.7641 17.8339 42.8306 17.9017 42.897 17.9696C43.7076 18.7968 44.8107 19.2646 45.9602 19.2646C47.1096 19.2646 48.2127 18.7968 49.0233 17.9696C49.834 17.1424 50.2924 16.0169 50.2924 14.844C50.299 14.2744 50.1861 13.7048 49.9668 13.1626Z" fill="white"/>
    <path d="M41.515 35.1637C41.7408 35.1637 41.8937 34.94 41.8272 34.7161L41.5681 33.8959C41.5215 33.7467 41.5813 33.5772 41.7143 33.5026C41.887 33.4009 42.1462 33.2517 42.4718 33.0482C43.0497 32.6958 43.8339 32.1873 44.6777 31.5634C44.877 31.421 45.0698 31.2788 45.2625 31.1295C45.6479 30.8379 46.0332 30.5125 46.4186 30.1601C46.5049 30.0855 46.5847 30.0109 46.6711 29.9362H46.6579C48.897 27.7735 50.9236 24.5461 50.9236 20.1255V15.6913C50.9236 15.3523 50.6313 15.0947 50.3057 15.1421C48.1395 15.4812 40.598 16.5728 33.0099 16.5728C25.4085 16.5728 17.7606 15.4812 15.5812 15.1421C15.2688 15.0947 14.9765 15.3523 14.9765 15.6913V20.1255C14.9765 24.5325 16.9832 27.753 19.2557 29.9362H19.2357C19.3818 30.0718 19.5281 30.2007 19.6741 30.3227C20.2124 30.804 20.7573 31.238 21.2888 31.611C21.9798 32.1195 22.6244 32.5397 23.1427 32.8719C23.6144 33.1636 23.9865 33.3806 24.2058 33.5026C24.3388 33.5772 24.4051 33.7398 24.3587 33.8959L24.1128 34.7161C24.0463 34.9331 24.1992 35.1637 24.425 35.1637H41.515Z" fill="url(#paint0_linear)"/>
    <path d="M55.6757 36.3292L57.0666 36.5459C57.2635 36.5766 57.4376 36.5114 57.4558 36.3943L62.5369 0.960174C62.5537 0.852046 62.4092 0.727991 62.2122 0.697298L61.6829 0.614812C61.486 0.584119 61.3119 0.649289 61.2937 0.766428L55.351 36.0663C55.3342 36.1744 55.4787 36.2985 55.6757 36.3292Z" fill="white"/>
    <path d="M52.5183 35.8371L53.9092 36.0539C54.1062 36.0845 54.2802 36.0194 54.2985 35.9022L59.3795 0.468109C59.3964 0.359981 59.2518 0.235925 59.0549 0.205233L58.5256 0.122747C58.3286 0.092054 58.1546 0.157223 58.1363 0.274362L52.1937 35.5742C52.1891 35.6843 52.3214 35.8064 52.5183 35.8371Z" fill="white"/>
    <path d="M6.75955 13.1558L6.7684 13.1538C11.0275 10.2862 8.58129 2.18694 4.02435 0.971392C3.40754 0.807113 2.77024 0.955545 2.28948 1.37546C-1.27027 4.48144 0.11382 12.828 5.20171 13.5187L5.21056 13.5166C5.26779 13.5219 5.31617 13.5293 5.3734 13.5347C5.45804 13.6176 5.52024 13.7244 5.54025 13.8504L9.42322 34.4085C9.54243 35.0806 9.9809 35.641 10.5617 35.851L10.6735 35.8903C11.2148 36.0908 11.4449 36.0372 11.8419 35.6182C12.2613 35.1752 12.4091 34.4876 12.23 33.8388L6.70863 13.5783C6.6668 13.4387 6.68013 13.2956 6.73712 13.1797C6.74391 13.1688 6.7507 13.1579 6.75955 13.1558Z" fill="white"/>
    <defs>
        <linearGradient id="paint0_linear" x1="19.2174" y1="15.9276" x2="46.9127" y2="34.466" gradientUnits="userSpaceOnUse">
            <stop stop-color="#F7ECD1"/>
            <stop offset="1" stop-color="#F4B59E"/>
        </linearGradient>
    </defs>
</svg>
