<svg width="95" height="34" viewBox="0 0 95 34" fill="none" xmlns="http://www.w3.org/2000/svg">
    <path d="M16.058 7.17665L16.3081 5.85329C16.1747 4.02096 14.9575 3.10479 12.6563 3.10479C11.3223 3.10479 10.1551 3.59681 9.15457 4.58084C8.18742 5.53094 7.70384 6.5489 7.70384 7.63473C7.70384 8.68663 8.13739 9.61976 9.00449 10.4341C9.90494 11.2146 10.9721 11.9271 12.2061 12.5719C13.4734 13.1826 14.724 13.8613 15.958 14.6078C17.2253 15.3204 18.2925 16.2535 19.1596 17.4072C20.06 18.5609 20.5102 19.8673 20.5102 21.3263C20.5102 24.3463 19.343 26.7216 17.0085 28.4521C14.674 30.1826 12.1561 31.0479 9.45472 31.0479C6.75337 31.0479 4.50225 30.5559 2.70135 29.5719C0.900449 28.5539 0 27.0269 0 24.991C0 23.9052 0.36685 22.9212 1.10055 22.0389C1.83425 21.1567 2.88477 20.7156 4.25212 20.7156C4.78572 20.7156 5.26929 20.8683 5.70284 21.1737C6.13639 21.479 6.40319 21.8862 6.50324 22.3952C6.50324 22.9042 6.20309 23.1587 5.60279 23.1587C4.4689 23.1587 3.90195 23.6507 3.90195 24.6347C3.9353 25.7545 4.45222 26.7725 5.45272 27.6886C6.48657 28.6048 7.92062 29.0629 9.75487 29.0629C11.6225 29.0629 13.2066 28.4182 14.5072 27.1287C15.8412 25.8393 16.5082 24.2784 16.5082 22.4461C16.5082 21.2246 16.058 20.1218 15.1576 19.1377C14.2571 18.1537 13.1732 17.3224 11.9059 16.6437C10.6386 15.9311 9.35467 15.2186 8.05402 14.506C6.78672 13.7934 5.70284 12.9281 4.8024 11.9102C3.90195 10.8922 3.45172 9.73852 3.45172 8.4491C3.45172 6.17565 4.4022 4.36028 6.30314 3.00299C8.23744 1.64571 10.4219 0.967066 12.8564 0.967066C14.4906 0.967066 15.9746 1.30639 17.3086 1.98503C18.6426 2.66367 19.3263 3.6986 19.3597 5.08982C19.3597 5.90419 19.1596 6.58283 18.7594 7.12575C18.3592 7.66866 17.8089 7.94012 17.1085 7.94012C16.4415 7.94012 16.0914 7.68563 16.058 7.17665Z" fill="white"/>
    <path d="M24.1164 5.6497C24.1164 5.03892 24.4332 4.51297 25.0669 4.07185C25.7005 3.63074 26.2675 3.41018 26.7677 3.41018C27.6681 3.41018 28.1184 3.93613 28.1184 4.98802C28.1184 6.03992 27.8516 6.95609 27.318 7.73653C26.7844 8.48303 26.034 8.85629 25.0669 8.85629C24.4332 8.85629 24.1164 7.78743 24.1164 5.6497ZM25.5671 30.7934C24.2665 30.7934 23.2826 30.522 22.6156 29.979C22.3822 29.7415 22.2655 28.8932 22.2655 27.4341C22.2655 25.975 22.3655 23.5489 22.5656 20.1557C22.7991 16.7285 22.9992 14.8792 23.1659 14.6078C23.3327 14.3363 23.8496 13.8273 24.7167 13.0808C25.5838 12.3343 26.2508 11.9611 26.7177 11.9611C27.2179 11.9611 27.468 12.6058 27.468 13.8952C27.468 14.2345 27.368 14.8962 27.1679 15.8802C27.0012 16.8643 26.8011 17.5768 26.5676 18.018C26.1341 19.1377 25.9173 22.0729 25.9173 26.8234C25.9173 27.7395 26.0173 28.1976 26.2174 28.1976C26.7844 28.1637 27.5681 27.4511 28.5686 26.0599C29.5691 24.6347 30.5529 22.8194 31.5201 20.6138C32.5206 18.4082 33.1209 17.3054 33.321 17.3054C33.5544 17.3054 33.6711 17.4411 33.6711 17.7126C33.6711 18.6627 33.1876 20.1727 32.2204 22.2425C29.5858 27.9431 27.368 30.7934 25.5671 30.7934Z" fill="white"/>
    <path d="M46.0461 32.3204L47.3968 32.1677C47.6636 32.1677 47.797 32.3034 47.797 32.5749C47.797 33.0499 47.4802 33.4062 46.8465 33.6437C46.2129 33.8812 45.4958 34 44.6954 34C43.1947 34 41.9274 33.3892 40.8936 32.1677C39.8931 30.9461 38.4924 28.6896 36.6915 25.3982C36.2579 24.6856 36.0411 24.1427 36.0411 23.7695C36.0411 23.2605 36.7415 22.6667 38.1422 21.988C40.41 20.8004 41.5439 19.3074 41.5439 17.509C41.5439 17 41.3604 16.5758 40.9936 16.2365C40.6601 15.8633 40.2099 15.6766 39.6429 15.6766C38.8425 15.6766 37.8921 16.6437 36.7915 18.5778C35.691 20.478 34.9406 22.2764 34.5404 23.9731C34.1735 25.6357 33.9901 27.4341 33.9901 29.3683C33.9901 30.3184 33.7233 30.7934 33.1897 30.7934C32.4227 30.7934 31.689 30.6916 30.9886 30.488C30.2883 30.2505 29.9381 29.9621 29.9381 29.6228C29.9381 29.2495 30.0715 27.6377 30.3383 24.7874C30.6051 21.9032 30.7552 19.8333 30.7885 18.5778C30.9219 11.6557 31.3221 6.36228 31.9891 2.6976C32.0892 2.39221 32.5394 1.86627 33.3398 1.11976C34.1735 0.373254 34.8405 0 35.3408 0C35.841 0 36.0745 0.64471 36.0411 1.93413C36.0411 3.18962 35.7743 5.90419 35.2407 10.0778C34.7071 14.2515 34.3736 18.0689 34.2402 21.5299C34.8405 19.3583 35.791 17.3054 37.0917 15.3713C38.4257 13.4371 39.7597 12.4701 41.0936 12.4701C43.3614 12.4701 44.4953 13.5898 44.4953 15.8293C44.4953 17.3224 44.0618 18.6796 43.1947 19.9012C42.3276 21.0888 41.1604 22.0559 39.693 22.8024C39.3928 22.9381 39.2427 23.0908 39.2427 23.2605C39.2427 23.4301 39.2928 23.5998 39.3928 23.7695C41.4938 27.5359 43.2781 30.1826 44.7455 31.7096C45.1457 32.1168 45.5792 32.3204 46.0461 32.3204Z" fill="white"/>
    <path d="M53.417 14.9641L53.5171 14.2006C53.5171 13.5898 53.1669 13.2844 52.4666 13.2844C51.7996 13.2844 51.1492 13.7425 50.5156 14.6587C49.8819 15.5409 49.5651 16.2705 49.5651 16.8473C49.5651 17.4242 49.5985 17.8822 49.6652 18.2216C49.7319 18.5609 49.7986 18.8493 49.8653 19.0868C49.9653 19.2904 50.1154 19.5449 50.3155 19.8503C50.5156 20.1557 50.6657 20.3762 50.7657 20.512L51.316 21.2246C51.5494 21.5639 51.7162 21.7844 51.8162 21.8862C53.5504 20.4271 55.6181 18.7984 58.0193 17C58.1527 16.8982 58.3028 16.8473 58.4696 16.8473C58.8031 16.8473 58.9698 17.0339 58.9698 17.4072C58.9698 17.7804 58.8197 18.0689 58.5196 18.2725C56.3852 19.6637 54.3675 21.1737 52.4666 22.8024C53.2003 23.8882 53.5671 25.0758 53.5671 26.3653C53.5671 27.6547 53.0835 28.7575 52.1164 29.6737C51.1492 30.5898 49.9153 31.0479 48.4145 31.0479C46.9138 31.0479 46.1634 30.3184 46.1634 28.8593C46.1634 27.8074 47.264 26.1956 49.4651 24.024C49.2983 23.8204 48.9982 23.498 48.5646 23.0569C48.1311 22.5818 47.7976 22.2086 47.5641 21.9371C47.364 21.6657 47.1139 21.3094 46.8137 20.8683C46.2801 20.02 46.0133 19.1038 46.0133 18.1198C46.0133 16.1178 46.647 14.506 47.9143 13.2844C49.1816 12.0289 50.5323 11.4012 51.9663 11.4012C52.8668 11.4012 53.5671 11.6557 54.0674 12.1647C54.5676 12.6397 54.8177 13.1317 54.8177 13.6407C54.8177 14.7944 54.5509 15.3713 54.0173 15.3713C53.6171 15.3713 53.417 15.2355 53.417 14.9641ZM50.2154 24.991C48.8814 26.3483 48.2144 27.4511 48.2144 28.2994C48.2144 29.1138 48.6313 29.521 49.4651 29.521C49.9653 29.521 50.3822 29.3174 50.7157 28.9102C51.4494 27.8922 51.2826 26.5858 50.2154 24.991Z" fill="white"/>
    <path d="M59.499 27.7904L59.5491 29.3683C59.5491 30.3184 59.2823 30.7934 58.7487 30.7934C57.9483 30.7934 57.1812 30.6916 56.4475 30.488C55.7138 30.2505 55.347 29.9451 55.347 29.5719C55.347 29.1647 55.4303 27.8244 55.5971 25.5509C55.7972 23.2435 55.8972 21.513 55.8972 20.3593V17.4072C55.8972 8.72056 57.4147 3.18962 60.4495 0.81437C61.1499 0.271457 61.8669 0 62.6006 0C62.9341 0 63.2676 0.373254 63.6011 1.11976C63.9346 1.86627 64.1013 2.83333 64.1013 4.02096C64.1013 6.93912 63.6178 9.67066 62.6506 12.2156C61.6835 14.7605 60.6996 16.7116 59.6991 18.0689C59.6658 18.9172 59.6491 20.2405 59.6491 22.0389C59.7825 21.8353 60.4829 20.6816 61.7502 18.5778C63.0175 16.4741 64.0847 14.9301 64.9518 13.9461C65.8522 12.9621 66.6526 12.4701 67.353 12.4701C68.0533 12.4701 68.6703 12.7076 69.2039 13.1826C69.7708 13.6577 70.0543 14.2515 70.0543 14.9641C70.0543 16.4571 69.8876 18.6627 69.5541 21.5808C69.2539 24.4651 69.1038 26.2974 69.1038 27.0778C69.1038 27.8244 69.2039 28.1976 69.404 28.1976C69.9709 28.1637 70.7547 27.4511 71.7551 26.0599C72.7556 24.6347 73.7395 22.8194 74.7066 20.6138C75.7071 18.4082 76.3074 17.3054 76.5075 17.3054C76.741 17.3054 76.8577 17.4411 76.8577 17.7126C76.8577 18.6627 76.3741 20.1727 75.407 22.2425C72.7723 27.9431 70.5546 30.7934 68.7537 30.7934C67.453 30.7934 66.4692 30.522 65.8022 29.979C65.5687 29.7415 65.452 29.1307 65.452 28.1467C65.452 27.1287 65.5354 25.5 65.7021 23.2605C65.9022 20.987 66.0023 19.2904 66.0023 18.1707C66.0023 17.0509 65.8022 16.491 65.402 16.491C65.0351 16.491 64.0346 17.6617 62.4005 20.003C60.7663 22.3104 59.8992 23.7864 59.7992 24.4311C59.5991 25.6188 59.499 26.7385 59.499 27.7904ZM62.7507 5.14072C62.7507 3.71557 62.5672 3.00299 62.2004 3.00299C61.6001 3.00299 61.0165 4.88623 60.4495 8.6527C60.1494 10.6547 59.9326 12.979 59.7992 15.6257C61.7668 11.4521 62.7507 7.95709 62.7507 5.14072Z" fill="white"/>
    <path d="M86.896 30.7934C85.5953 30.7934 84.6115 30.522 83.9445 29.979C83.711 29.7415 83.5943 29.1477 83.5943 28.1976C83.5943 27.2136 83.6277 25.9072 83.6944 24.2784C82.8273 26.484 81.9602 28.1297 81.0931 29.2156C80.2593 30.2675 79.1754 30.7934 77.8414 30.7934C76.5074 30.7934 75.3402 30.1657 74.3397 28.9102C73.3392 27.6208 72.839 25.6188 72.839 22.9042C72.839 20.1557 73.5893 17.7295 75.0901 15.6257C76.6242 13.522 78.6252 12.4701 81.0931 12.4701C82.1603 12.4701 83.3609 13.1826 84.6949 14.6078C84.9617 14.2345 85.4286 13.7934 86.0956 13.2844C86.7959 12.7415 87.3795 12.4701 87.8464 12.4701C88.3467 12.4701 88.5968 13.1148 88.5968 14.4042C88.5968 14.7435 88.4968 15.4052 88.2967 16.3892C88.1299 17.3733 87.9298 18.0858 87.6964 18.5269C87.3962 19.3074 87.2461 22.0729 87.2461 26.8234C87.2461 27.7395 87.3462 28.1976 87.5463 28.1976C88.1132 28.1637 88.897 27.4511 89.8975 26.0599C90.898 24.6347 91.8818 22.8194 92.8489 20.6138C93.8494 18.4082 94.4497 17.3054 94.6498 17.3054C94.8833 17.3054 95 17.4411 95 17.7126C95 18.6627 94.5164 20.1727 93.5493 22.2425C90.9146 27.9431 88.6969 30.7934 86.896 30.7934ZM80.7929 14.506C79.8591 14.506 78.8586 15.2186 77.7914 16.6437C76.7576 18.0349 76.2406 19.6806 76.2406 21.5808C76.2406 23.481 76.5074 25.0419 77.041 26.2635C77.608 27.485 78.3417 28.0958 79.2421 28.0958C80.3427 28.0958 81.9602 25.2964 84.0946 19.6976C84.1279 19.4261 84.1613 18.9681 84.1946 18.3234C84.2613 17.6447 84.3113 17.1357 84.3447 16.7964C84.0445 16.2535 83.5109 15.7445 82.7439 15.2695C82.0102 14.7605 81.3599 14.506 80.7929 14.506Z" fill="white"/>
</svg>
