<svg width="112" height="107" viewBox="0 0 112 107" fill="none" xmlns="http://www.w3.org/2000/svg">
<g filter="url(#filter0_d_5314_34430)">
<path d="M98.9951 36.6495C98.4409 35.2958 97.6349 34.0619 96.6274 33.0339C95.6033 31.9889 94.4112 31.1664 93.0675 30.6181C92.5134 30.3781 91.9592 30.2067 91.3886 30.0698C91.5397 29.3501 91.6066 28.5963 91.6066 27.8421C91.6066 26.3686 91.3213 24.9296 90.7671 23.5758C90.213 22.2222 89.4069 20.9886 88.3994 19.9605C87.3753 18.9153 86.1828 18.0929 84.8395 17.5446C83.5132 16.9791 82.0858 16.6878 80.6417 16.6878C79.1977 16.6878 77.7872 16.9791 76.4435 17.5446C76.2589 17.6302 76.0744 17.7159 75.8898 17.8016C75.8729 16.3795 75.5875 14.9744 75.0668 13.6551C74.5127 12.3015 73.7066 11.0679 72.6991 10.0398C71.6751 8.97744 70.466 8.15499 69.1393 7.60673C67.8125 7.04129 66.3855 6.75 64.9415 6.75C63.4971 6.75 62.0869 7.04129 60.7433 7.60673C59.4169 8.17213 58.2079 8.99458 57.1834 10.0226C56.73 10.4853 56.327 10.965 55.9744 11.4962C55.6052 10.965 55.2022 10.4853 54.7653 10.0226C53.7747 8.97744 52.5657 8.15499 51.2393 7.60673C49.9126 7.04129 48.4855 6.75 47.0411 6.75C45.5971 6.75 44.1866 7.04129 42.8433 7.60673C41.5166 8.17213 40.3075 8.99458 39.2835 10.0226C38.259 11.0507 37.453 12.2843 36.9158 13.638C36.3785 14.9573 36.1097 16.3623 36.0928 17.7845C34.6323 17.0648 33.0033 16.6707 31.3408 16.6707C29.8968 16.6707 28.4863 16.962 27.143 17.5274C25.8332 18.0929 24.6242 18.9153 23.5997 19.9434C22.5757 20.9886 21.7696 22.2051 21.2324 23.5587C20.6783 24.9122 20.3925 26.3686 20.3925 27.8251C20.3925 28.5789 20.4598 29.3156 20.611 30.0524C20.0399 30.1897 19.4692 30.3781 18.9316 30.6007C17.6053 31.1665 16.3962 31.9889 15.3717 33.0169C14.3477 34.0619 13.5417 35.2787 13.004 36.632C12.4503 37.9857 12.1646 39.4421 12.1646 40.8986C12.1646 43.8626 13.3232 46.7069 15.3717 48.7974C17.4207 50.8878 20.2079 52.0701 23.1129 52.0701C26.0178 52.0701 28.8055 50.8878 30.854 48.7974C31.0221 48.626 31.1897 48.4546 31.3408 48.2661V49.1401H80.6417V48.2661C80.7929 48.4546 80.9609 48.626 81.1286 48.7974C83.1771 50.8878 85.9648 52.0701 88.8697 52.0701C91.7747 52.0701 94.5623 50.8878 96.6108 48.7974C98.6594 46.7069 99.818 43.8626 99.818 40.8986C99.8346 39.4592 99.5492 38.0198 98.9951 36.6495Z" fill="white"/>
<path d="M77.6448 92.2486C78.2154 92.2486 78.6019 91.6832 78.4339 91.1174L77.779 89.0445C77.6613 88.6676 77.8124 88.2391 78.1485 88.0506C78.585 87.7935 79.2399 87.4166 80.0629 86.9024C81.5234 86.0118 83.505 84.7267 85.6374 83.15C86.1411 82.7902 86.6284 82.4307 87.1152 82.0534C88.0893 81.3167 89.063 80.4942 90.0371 79.6035C90.2551 79.4151 90.4566 79.2266 90.6751 79.0378H90.6416C96.3004 73.5722 101.422 65.4164 101.422 54.2448V43.0388C101.422 42.1822 100.683 41.5312 99.8602 41.651C94.386 42.5079 75.3274 45.2665 56.1511 45.2665C36.9414 45.2665 17.614 42.5079 12.1064 41.651C11.3168 41.5312 10.5781 42.1822 10.5781 43.0388V54.2448C10.5781 65.3818 15.6493 73.5206 21.3922 79.0378H21.3419C21.711 79.3806 22.0806 79.7063 22.4498 80.0146C23.8099 81.231 25.187 82.3276 26.5303 83.2702C28.2766 84.5553 29.9055 85.6174 31.2153 86.4569C32.4075 87.1941 33.3477 87.7424 33.9018 88.0506C34.238 88.2391 34.4056 88.6501 34.2883 89.0445L33.6669 91.1174C33.4988 91.6657 33.8853 92.2486 34.456 92.2486H77.6448Z" fill="url(#paint0_linear_5314_34430)"/>
</g>
<defs>
<filter id="filter0_d_5314_34430" x="0.578125" y="0.75" width="110.844" height="105.498" filterUnits="userSpaceOnUse" color-interpolation-filters="sRGB">
<feFlood flood-opacity="0" result="BackgroundImageFix"/>
<feColorMatrix in="SourceAlpha" type="matrix" values="0 0 0 0 0 0 0 0 0 0 0 0 0 0 0 0 0 0 127 0" result="hardAlpha"/>
<feOffset dy="4"/>
<feGaussianBlur stdDeviation="5"/>
<feColorMatrix type="matrix" values="0 0 0 0 0 0 0 0 0 0 0 0 0 0 0 0 0 0 0.1 0"/>
<feBlend mode="normal" in2="BackgroundImageFix" result="effect1_dropShadow_5314_34430"/>
<feBlend mode="normal" in="SourceGraphic" in2="effect1_dropShadow_5314_34430" result="shape"/>
</filter>
<linearGradient id="paint0_linear_5314_34430" x1="21.2956" y1="43.6361" x2="91.2857" y2="90.4853" gradientUnits="userSpaceOnUse">
<stop stop-color="#F7ECD1"/>
<stop offset="1" stop-color="#F4B59E"/>
</linearGradient>
</defs>
</svg>
