<svg width="112" height="107" viewBox="0 0 112 107" fill="none" xmlns="http://www.w3.org/2000/svg">
<g filter="url(#filter0_d_5314_15689)">
<path d="M98.9946 36.6495C98.4404 35.2958 97.6344 34.0619 96.6269 33.0339C95.6028 31.9889 94.4107 31.1664 93.067 30.6181C92.5129 30.3781 91.9587 30.2067 91.3881 30.0698C91.5392 29.3501 91.6061 28.5963 91.6061 27.8421C91.6061 26.3686 91.3208 24.9296 90.7666 23.5758C90.2125 22.2222 89.4064 20.9886 88.3989 19.9605C87.3748 18.9153 86.1823 18.0929 84.8391 17.5446C83.5127 16.9791 82.0853 16.6878 80.6413 16.6878C79.1973 16.6878 77.7867 16.9791 76.443 17.5446C76.2585 17.6302 76.0739 17.7159 75.8893 17.8016C75.8724 16.3795 75.587 14.9744 75.0663 13.6551C74.5122 12.3015 73.7062 11.0679 72.6986 10.0398C71.6746 8.97744 70.4655 8.15499 69.1388 7.60673C67.812 7.04129 66.385 6.75 64.941 6.75C63.4966 6.75 62.0864 7.04129 60.7428 7.60673C59.4164 8.17213 58.2074 8.99458 57.1829 10.0226C56.7295 10.4853 56.3265 10.965 55.9739 11.4962C55.6047 10.965 55.2017 10.4853 54.7648 10.0226C53.7742 8.97744 52.5652 8.15499 51.2388 7.60673C49.9121 7.04129 48.485 6.75 47.0406 6.75C45.5966 6.75 44.1861 7.04129 42.8428 7.60673C41.5161 8.17213 40.307 8.99458 39.283 10.0226C38.2585 11.0507 37.4525 12.2843 36.9153 13.638C36.378 14.9573 36.1092 16.3623 36.0923 17.7845C34.6318 17.0648 33.0028 16.6707 31.3404 16.6707C29.8964 16.6707 28.4858 16.962 27.1425 17.5274C25.8327 18.0929 24.6237 18.9153 23.5992 19.9434C22.5752 20.9886 21.7691 22.2051 21.2319 23.5587C20.6778 24.9122 20.392 26.3686 20.392 27.8251C20.392 28.5789 20.4593 29.3156 20.6105 30.0524C20.0394 30.1897 19.4687 30.3781 18.9311 30.6007C17.6048 31.1665 16.3957 31.9889 15.3713 33.0169C14.3472 34.0619 13.5412 35.2787 13.0035 36.632C12.4498 37.9857 12.1641 39.4421 12.1641 40.8986C12.1641 43.8626 13.3227 46.7069 15.3713 48.7974C17.4202 50.8878 20.2074 52.0701 23.1124 52.0701C26.0173 52.0701 28.805 50.8878 30.8535 48.7974C31.0216 48.626 31.1892 48.4546 31.3404 48.2661V49.1401H80.6413V48.2661C80.7924 48.4546 80.9605 48.626 81.1281 48.7974C83.1766 50.8878 85.9643 52.0701 88.8692 52.0701C91.7742 52.0701 94.5618 50.8878 96.6103 48.7974C98.6589 46.7069 99.8176 43.8626 99.8176 40.8986C99.8341 39.4592 99.5487 38.0198 98.9946 36.6495Z" fill="#232323"/>
<path d="M77.6448 92.2486C78.2154 92.2486 78.6019 91.6832 78.4339 91.1174L77.779 89.0445C77.6613 88.6676 77.8124 88.2391 78.1485 88.0506C78.585 87.7935 79.2399 87.4166 80.0629 86.9024C81.5234 86.0118 83.505 84.7267 85.6374 83.15C86.1411 82.7902 86.6284 82.4307 87.1152 82.0534C88.0893 81.3167 89.063 80.4942 90.0371 79.6035C90.2551 79.4151 90.4566 79.2266 90.6751 79.0378H90.6416C96.3004 73.5722 101.422 65.4164 101.422 54.2448V43.0388C101.422 42.1822 100.683 41.5312 99.8602 41.651C94.386 42.5079 75.3274 45.2665 56.1511 45.2665C36.9414 45.2665 17.614 42.5079 12.1064 41.651C11.3168 41.5312 10.5781 42.1822 10.5781 43.0388V54.2448C10.5781 65.3818 15.6493 73.5206 21.3922 79.0378H21.3419C21.711 79.3806 22.0806 79.7063 22.4498 80.0146C23.8099 81.231 25.187 82.3276 26.5303 83.2702C28.2766 84.5553 29.9055 85.6174 31.2153 86.4569C32.4075 87.1941 33.3477 87.7424 33.9018 88.0506C34.238 88.2391 34.4056 88.6501 34.2883 89.0445L33.6669 91.1174C33.4988 91.6657 33.8853 92.2486 34.456 92.2486H77.6448Z" fill="url(#paint0_linear_5314_15689)"/>
</g>
<defs>
<filter id="filter0_d_5314_15689" x="0.578125" y="0.75" width="110.844" height="105.498" filterUnits="userSpaceOnUse" color-interpolation-filters="sRGB">
<feFlood flood-opacity="0" result="BackgroundImageFix"/>
<feColorMatrix in="SourceAlpha" type="matrix" values="0 0 0 0 0 0 0 0 0 0 0 0 0 0 0 0 0 0 127 0" result="hardAlpha"/>
<feOffset dy="4"/>
<feGaussianBlur stdDeviation="5"/>
<feColorMatrix type="matrix" values="0 0 0 0 0 0 0 0 0 0 0 0 0 0 0 0 0 0 0.1 0"/>
<feBlend mode="normal" in2="BackgroundImageFix" result="effect1_dropShadow_5314_15689"/>
<feBlend mode="normal" in="SourceGraphic" in2="effect1_dropShadow_5314_15689" result="shape"/>
</filter>
<linearGradient id="paint0_linear_5314_15689" x1="21.2956" y1="43.6361" x2="91.2857" y2="90.4853" gradientUnits="userSpaceOnUse">
<stop stop-color="#F7ECD1"/>
<stop offset="1" stop-color="#F4B59E"/>
</linearGradient>
</defs>
</svg>
