<svg width="29" height="25" viewBox="0 0 29 25" fill="none" xmlns="http://www.w3.org/2000/svg">
<path d="M27.4916 9.62521L27.4917 9.62532C27.5668 9.85471 27.5043 10.1042 27.3176 10.2751L27.3176 10.2751L27.3135 10.2789L21.5462 15.6766L21.3477 15.8623L21.3957 16.1298L22.7595 23.7433C22.7595 23.7434 22.7595 23.7434 22.7595 23.7434C22.8019 23.9805 22.7135 24.2076 22.4941 24.3654C22.3614 24.4588 22.2281 24.5 22.0826 24.5C21.9513 24.5 21.8421 24.4744 21.7553 24.4275L21.7553 24.4273L21.7429 24.421L14.6116 20.8226L14.3864 20.7089L14.1611 20.8226L7.02989 24.421L7.0298 24.4208L7.01753 24.4275C6.93058 24.4744 6.82147 24.5 6.6901 24.5C6.54413 24.5 6.4105 24.4586 6.27732 24.3644L6.27591 24.3634C6.07645 24.2234 5.97129 23.978 6.01321 23.7435C6.01322 23.7434 6.01322 23.7434 6.01323 23.7433L7.37711 16.1298L7.42503 15.8623L7.22661 15.6766L1.45927 10.2789L1.4593 10.2789L1.45514 10.2751C1.26845 10.1042 1.20593 9.85474 1.28105 9.62524L0.806945 9.47005L1.28105 9.62524C1.35573 9.39711 1.56183 9.22238 1.82348 9.18921L1.82349 9.18925L1.82986 9.18836L9.81839 8.07094L10.0752 8.03502L10.1938 7.80447L13.7594 0.872648L13.7595 0.872692L13.7638 0.863873C13.8671 0.652925 14.1113 0.5 14.3864 0.5C14.6614 0.5 14.9056 0.652924 15.009 0.863873L15.0089 0.863916L15.0134 0.872648L18.579 7.80447L18.6976 8.03502L18.9543 8.07094L26.9429 9.18836L26.9429 9.1884L26.9493 9.18921C27.2109 9.22238 27.417 9.39711 27.4916 9.62521Z" fill="#D6D5D5" stroke="#BCBCBC"/>
</svg>
