<svg width="9" height="8" viewBox="0 0 9 8" fill="none" xmlns="http://www.w3.org/2000/svg">
<path id="Vector" d="M8.78196 3.0303C8.73796 2.89697 8.6185 2.8 8.47393 2.78182L5.89629 2.42424L4.74578 0.206061C4.68292 0.078788 4.5446 0 4.4 0C4.2554 0 4.11708 0.078788 4.05422 0.206061L2.90372 2.42424L0.326084 2.78182C0.181484 2.8 0.0620344 2.89697 0.0180259 3.0303C-0.0259823 3.16363 0.0117389 3.30908 0.118617 3.40606L1.97954 5.13332L1.53946 7.56969C1.51431 7.70908 1.57718 7.84849 1.69034 7.92726C1.7595 7.97575 1.83494 8 1.91667 8C1.97954 8 2.04241 7.98788 2.09899 7.95757L4.4 6.80606L6.70101 7.95757C6.75759 7.98788 6.82047 8 6.88333 8C6.96505 8 7.04051 7.97575 7.10965 7.92726C7.22911 7.84243 7.28568 7.70908 7.26054 7.56969L6.82047 5.13332L8.68139 3.40606C8.78825 3.30908 8.826 3.16363 8.78196 3.0303Z" fill="#919191"/>
</svg>
