<svg width="24" height="23" viewBox="0 0 24 23" fill="none" xmlns="http://www.w3.org/2000/svg">
<path d="M23.0109 8.98296L23.011 8.98306C23.0702 9.17191 23.0186 9.37257 22.8798 9.50507L22.8798 9.50504L22.8758 9.50896L18.0121 14.2589L17.8242 14.4424L17.8686 14.7012L19.0188 21.4011C19.0188 21.4012 19.0188 21.4012 19.0188 21.4012C19.0523 21.5971 18.9813 21.7767 18.819 21.8986C18.7201 21.9713 18.6263 22 18.5257 22C18.4281 22 18.3524 21.9803 18.2947 21.9478L18.2885 21.9442L18.2821 21.9409L12.2681 18.7743L12.0352 18.6516L11.8022 18.7743L5.78821 21.9409L5.78189 21.9442L5.77567 21.9477C5.7179 21.9803 5.64225 22 5.54464 22C5.4436 22 5.34945 21.971 5.24994 21.8976L5.24853 21.8966C5.10348 21.7903 5.01838 21.5948 5.05153 21.4013C5.05153 21.4012 5.05154 21.4012 5.05155 21.4012L6.20175 14.7012L6.24618 14.4424L6.0583 14.2589L1.19452 9.50896L1.19454 9.50893L1.19046 9.50503C1.05174 9.37259 1.00007 9.17194 1.05935 8.98299L0.58306 8.83358L1.05935 8.98299C1.11746 8.79775 1.2721 8.66961 1.453 8.64568L1.453 8.64573L1.45964 8.64476L8.19663 7.66143L8.45669 7.62347L8.57289 7.38774L11.5799 1.28774L11.58 1.28778L11.584 1.27912C11.6621 1.11284 11.8418 1 12.0352 1C12.2285 1 12.4082 1.11283 12.4863 1.27912L12.4862 1.27916L12.4904 1.28774L15.4974 7.38774L15.6136 7.62347L15.8737 7.66143L22.6107 8.64476L22.6107 8.6448L22.6173 8.64568C22.7982 8.66961 22.9528 8.79775 23.0109 8.98296Z" stroke="#FF9522"/>
</svg>
