<?xml version="1.0" encoding="utf-8"?>
<!-- Generator: Adobe Illustrator 25.2.0, SVG Export Plug-In . SVG Version: 6.00 Build 0)  -->
<svg version="1.1" id="레이어_1" xmlns="http://www.w3.org/2000/svg" xmlns:xlink="http://www.w3.org/1999/xlink" x="0px"
	 y="0px" viewBox="0 0 2666.1 981.9" style="enable-background:new 0 0 2666.1 981.9;" xml:space="preserve">
<style type="text/css">
	.st0{fill:#ED8573;}
	.st1{fill:#F0975E;}
	.st2{fill-rule:evenodd;clip-rule:evenodd;fill:#27181D;}
	.st3{fill:#27181D;}
</style>
<g>
	<rect x="1456.9" y="465.1" class="st0" width="122.6" height="124.5"/>
	<rect x="1285.2" y="465.1" class="st1" width="122.6" height="124.5"/>
	<rect x="1456.9" y="291.5" class="st1" width="122.6" height="124.5"/>
	<rect x="1285.2" y="291.5" class="st1" width="122.6" height="124.5"/>
	<path class="st2" d="M1285.2,167h-49v75.5h-73.6v49h73.6V416h-73.6v49h73.6v124.5h49V465.1h122.6v124.5h49V465.1h122.6v-49h-122.6
		V291.5h122.6v-49h-122.6V167h-49v75.5h-122.6V167z M1407.8,416V291.5h-122.6V416H1407.8z"/>
	<g>
		<path class="st3" d="M510.2,587.7l-57.7-241.5h49.9l36.4,165.9L583,346.2h58l42.3,168.7l37.1-168.7h49.1l-58.6,241.5h-51.7
			L611,407.1L563,587.7H510.2z"/>
	</g>
	<g>
		<path class="st3" d="M1087.7,587.7h-53l-21.1-54.9H917l-19.9,54.9h-51.7l94.1-241.5H991L1087.7,587.7z M997.9,492.1l-33.3-89.6
			L932,492.1H997.9z"/>
	</g>
	<g>
		<path class="st3" d="M1743.1,587.7V348.2h48.8V547h121.2v40.7H1743.1z"/>
	</g>
	<g>
		<path class="st3" d="M984.9,791.5l13.4-1.3c0.8,4.5,2.4,7.8,4.9,9.9c2.5,2.1,5.8,3.2,10,3.2c4.4,0,7.8-0.9,10-2.8
			c2.2-1.9,3.4-4.1,3.4-6.6c0-1.6-0.5-3-1.4-4.1c-0.9-1.1-2.6-2.1-4.9-2.9c-1.6-0.6-5.3-1.5-11-3c-7.4-1.8-12.5-4.1-15.5-6.7
			c-4.2-3.7-6.3-8.3-6.3-13.7c0-3.5,1-6.7,2.9-9.7s4.8-5.3,8.5-6.9c3.7-1.6,8.2-2.4,13.4-2.4c8.5,0,15,1.9,19.3,5.6
			c4.3,3.8,6.6,8.8,6.8,15l-13.7,0.6c-0.6-3.5-1.9-6-3.8-7.6c-1.9-1.5-4.8-2.3-8.7-2.3c-4,0-7.1,0.8-9.4,2.5
			c-1.5,1.1-2.2,2.5-2.2,4.2c0,1.6,0.7,3,2,4.1c1.7,1.5,5.9,3,12.6,4.6c6.7,1.6,11.6,3.2,14.8,4.9c3.2,1.7,5.7,4,7.5,6.9
			c1.8,2.9,2.7,6.5,2.7,10.8c0,3.9-1.1,7.6-3.2,11c-2.2,3.4-5.2,5.9-9.2,7.6c-4,1.7-8.9,2.5-14.8,2.5c-8.6,0-15.2-2-19.8-6
			C988.5,804.9,985.8,799.1,984.9,791.5z"/>
		<path class="st3" d="M1142.7,813.7v-56.5h-20.2v-11.5h54.1v11.5h-20.1v56.5H1142.7z"/>
		<path class="st3" d="M1261,745.6h13.7v36.9c0,5.8,0.2,9.6,0.5,11.4c0.6,2.8,2,5,4.2,6.7c2.2,1.7,5.2,2.5,9.1,2.5
			c3.9,0,6.8-0.8,8.8-2.4c2-1.6,3.2-3.6,3.6-5.9c0.4-2.3,0.6-6.2,0.6-11.6v-37.7h13.7v35.7c0,8.2-0.4,13.9-1.1,17.3
			c-0.7,3.4-2.1,6.2-4.1,8.5c-2,2.3-4.7,4.2-8,5.5c-3.3,1.4-7.7,2.1-13.1,2.1c-6.5,0-11.4-0.8-14.8-2.2c-3.4-1.5-6-3.4-8-5.9
			c-2-2.4-3.2-4.9-3.9-7.5c-0.9-3.9-1.3-9.7-1.3-17.3V745.6z"/>
		<path class="st3" d="M1405.4,745.6h25.1c5.7,0,10,0.4,13,1.3c4,1.2,7.4,3.3,10.3,6.3c2.8,3,5,6.7,6.5,11c1.5,4.3,2.2,9.7,2.2,16.1
			c0,5.6-0.7,10.4-2.1,14.5c-1.7,4.9-4.1,9-7.3,12c-2.4,2.3-5.6,4.1-9.7,5.4c-3,1-7.1,1.4-12.2,1.4h-25.8V745.6z M1419.1,757.1v45.1
			h10.2c3.9,0,6.6-0.2,8.3-0.7c2.2-0.6,4.1-1.5,5.6-2.8c1.5-1.3,2.7-3.5,3.6-6.6c0.9-3,1.4-7.2,1.4-12.5c0-5.3-0.5-9.3-1.4-12.1
			c-0.9-2.8-2.2-5-3.9-6.6c-1.7-1.6-3.8-2.6-6.4-3.2c-1.9-0.4-5.7-0.7-11.3-0.7H1419.1z"/>
		<path class="st3" d="M1549.3,813.7v-68.1h13.7v68.1H1549.3z"/>
		<path class="st3" d="M1649,780c0-6.9,1-12.7,3.1-17.4c1.5-3.5,3.7-6.6,6.3-9.3c2.7-2.7,5.6-4.8,8.8-6.1c4.3-1.8,9.1-2.7,14.7-2.7
			c10,0,18,3.1,24.1,9.3c6,6.2,9,14.9,9,25.9c0,11-3,19.6-9,25.8c-6,6.2-14,9.3-23.9,9.3c-10.1,0-18.2-3.1-24.2-9.3
			C1651.9,799.4,1649,790.9,1649,780z M1663.1,779.6c0,7.7,1.8,13.5,5.3,17.5c3.6,4,8.1,6,13.6,6s10-2,13.5-5.9
			c3.5-3.9,5.3-9.9,5.3-17.7c0-7.8-1.7-13.6-5.1-17.5c-3.4-3.8-8-5.7-13.6-5.7c-5.7,0-10.2,1.9-13.7,5.8S1663.1,771.8,1663.1,779.6z
			"/>
	</g>
	<g>
		<path class="st3" d="M2030,587.7V346.2H2209V387h-130.3v53.5H2200v40.7h-121.3V547h134.9v40.7H2030z"/>
	</g>
</g>
</svg>
