<svg width="16" height="21" viewBox="0 0 16 21" fill="none" xmlns="http://www.w3.org/2000/svg">
    <path d="M14.5445 7.90847C14.5445 9.52154 13.7862 11.3921 12.7057 13.2152C11.6353 15.0211 10.2986 16.6989 9.24665 17.9073C8.57312 18.681 7.42698 18.681 6.75345 17.9073C5.70151 16.6989 4.36475 15.0211 3.29443 13.2152C2.21392 11.3921 1.4556 9.52154 1.4556 7.90847C1.4556 3.84354 4.4422 0.655556 8.00005 0.655556C11.5579 0.655556 14.5445 3.84354 14.5445 7.90847Z" stroke="#FE8C59" stroke-width="1.31111"/>
    <path d="M10.5445 7.57899C10.5445 9.10936 9.37403 10.2919 8.00005 10.2919C6.62607 10.2919 5.4556 9.10936 5.4556 7.57899C5.4556 6.04863 6.62607 4.86613 8.00005 4.86613C9.37403 4.86613 10.5445 6.04863 10.5445 7.57899Z" stroke="#FE8C59" stroke-width="1.31111"/>
</svg>
