<svg width="19" height="17" viewBox="0 0 19 17" fill="none" xmlns="http://www.w3.org/2000/svg">
    <path d="M15.1446 6.57032C15.1446 6.57032 16.978 7.16478 18.1705 5.5937C18.6326 4.98508 18.6475 4.33401 18.6176 3.95185C18.6027 3.81031 18.4239 3.7537 18.3195 3.85277C17.9916 4.34816 16.5755 4.33401 16.5755 4.33401C14.3694 3.92354 13.5496 5.74939 13.5496 5.74939" fill="#B0B0B0"/>
    <path d="M2.99598 15.8128H2.66804C2.5637 15.8128 2.45936 15.7562 2.42955 15.6571C1.95256 14.4965 -0.0597461 8.87742 1.52029 5.82018C2.93635 3.04603 6.67775 3.20172 8.64533 3.20172C10.6129 3.20172 12.9383 3.44234 14.25 4.54634C16.5306 6.48541 16.6498 7.60357 16.948 8.02818C17.2461 8.4528 17.097 9.44357 18.4385 9.30203C19.6906 9.17465 18.4833 10.8731 18.3044 11.1137C18.2895 11.1279 18.2746 11.1562 18.2597 11.1703C18.0063 11.3543 16.2027 12.6282 13.0277 12.5716C12.8786 12.5716 12.7594 12.6707 12.7594 12.8122L12.6401 15.5722C12.6401 15.6996 12.5209 15.8128 12.3718 15.8128H11.8799C11.7905 15.8128 11.7011 15.7703 11.6563 15.6996C11.388 15.275 10.449 13.7888 10.2701 13.0528C10.2403 12.9396 10.1359 12.8547 10.0018 12.8547C9.13723 12.8971 6.14113 12.9962 4.75488 12.3734C4.63563 12.3168 4.50148 12.3593 4.42695 12.4442C4.12883 12.8405 3.41334 13.9303 3.24938 15.5863C3.23447 15.7137 3.13013 15.8128 2.99598 15.8128Z" fill="#B0B0B0"/>
    <path d="M14.8608 9.93846C15.348 9.93846 15.743 9.55791 15.743 9.08846C15.743 8.61902 15.348 8.23846 14.8608 8.23846C14.3736 8.23846 13.9787 8.61902 13.9787 9.08846C13.9787 9.55791 14.3736 9.93846 14.8608 9.93846Z" fill="white"/>
    <path d="M17.0537 16.2094L0.832672 0.806763L1.14875e-05 1.59741L16.2211 17L17.0537 16.2094Z" fill="#B0B0B0"/>
    <path d="M17.8827 15.4026L1.66165 0L0.828991 0.790647L17.0501 16.1933L17.8827 15.4026Z" fill="white"/>
</svg>
