<svg width="25" height="25" viewBox="0 0 25 25" fill="none" xmlns="http://www.w3.org/2000/svg">
<circle cx="12.1252" cy="12.0471" r="12.0471" fill="#575757"/>
<path fill-rule="evenodd" clip-rule="evenodd" d="M18.141 6.70591C18.5325 7.09848 18.5317 7.73413 18.1391 8.12567L13.8752 12.3784L18.1185 16.6217C18.5105 17.0138 18.5105 17.6495 18.1185 18.0415C17.7264 18.4336 17.0908 18.4336 16.6987 18.0415L12.4536 13.7963L8.18776 18.051C7.79519 18.4425 7.15955 18.4417 6.768 18.0491C6.37646 17.6565 6.37729 17.0209 6.76986 16.6293L11.0338 12.3766L6.76041 8.10319C6.36836 7.71114 6.36836 7.07549 6.76041 6.68343C7.15247 6.29138 7.78812 6.29138 8.18017 6.68343L12.4554 10.9587L16.7212 6.70405C17.1138 6.31251 17.7494 6.31334 18.141 6.70591Z" fill="#DFDFDF"/>
</svg>
