<svg width="190" height="11" viewBox="0 0 190 11" fill="none" xmlns="http://www.w3.org/2000/svg">
<path d="M9.12598 11H11.1768L13.9111 0.746094H11.7236L9.94629 7.71875L8.16895 0.746094H6.0498L4.2041 7.71875L2.41992 0.746094H0.232422L2.97363 11H5.02441L7.0752 3.48047L9.12598 11ZM20.4887 11L24.5902 0.746094H26.641L30.7357 10.9932L28.5551 11L27.9398 9.42773H23.2914L22.6762 11H20.4887ZM25.6703 3.48047L24.1117 7.37695H27.1879L25.6703 3.48047ZM37.8602 11V0.746094H45.0721V2.66016H39.9109V4.84766H43.7186V6.75488H39.9109V11H37.8602ZM52.1555 11V0.746094H59.3674V2.66016H54.2063V4.84766H58.0139V6.75488H54.2063V11H52.1555ZM66.4781 0.746094V11H73.9977V9.08594H68.5289V0.746094H66.4781ZM81.2588 11V0.75293L88.792 0.746094V2.66016H83.3096V4.84766H87.418V6.75488H83.3096V9.08594H88.7783V11H81.2588ZM110.178 0.746094C111.13 0.746094 111.868 0.860026 112.392 1.08789C112.916 1.31576 113.406 1.65755 113.862 2.11328L112.495 3.48047C112.039 2.93359 111.401 2.66016 110.581 2.66016C109.761 2.66016 109.236 2.85384 109.009 3.24121C108.781 3.62858 108.781 3.95898 109.009 4.23242C109.236 4.50586 109.761 4.71094 110.581 4.84766C111.447 4.9388 112.233 5.22363 112.939 5.70215C113.646 6.18066 113.999 6.94401 113.999 7.99219C113.999 8.8125 113.621 9.51888 112.864 10.1113C112.112 10.7038 111.235 11 110.232 11C109.28 11 108.485 10.8633 107.846 10.5898C107.208 10.3164 106.662 9.95182 106.206 9.49609L107.573 8.12891C108.029 8.67578 108.804 8.99479 109.897 9.08594C110.809 9.08594 111.376 8.89225 111.599 8.50488C111.827 8.11751 111.827 7.73014 111.599 7.34277C111.376 6.9554 110.809 6.71615 109.897 6.625C109.077 6.53385 108.325 6.2832 107.641 5.87305C106.958 5.46289 106.616 4.75651 106.616 3.75391C106.616 2.84701 107.003 2.12012 107.778 1.57324C108.557 1.02181 109.357 0.746094 110.178 0.746094ZM120.918 0.746094V2.66016H124.336V11H126.387V2.66016H129.805V0.746094H120.918ZM136.779 0.746094V7.24023C136.779 8.28841 137.2 9.17708 138.044 9.90625C138.887 10.6354 139.946 11 141.222 11C142.498 11 143.558 10.6354 144.401 9.90625C145.244 9.17708 145.666 8.28841 145.666 7.24023V0.746094H143.615V6.69336C143.615 7.4681 143.387 8.03776 142.931 8.40234C142.476 8.76693 141.906 8.94922 141.222 8.94922C140.539 8.94922 139.969 8.76693 139.513 8.40234C139.058 8.03776 138.83 7.4681 138.83 6.69336V0.746094H136.779ZM155.538 8.95605V2.79688H157.438C159.257 2.79688 160.168 3.82227 160.173 5.87305C160.168 7.92383 159.257 8.9515 157.438 8.95605H155.538ZM157.438 11C160.629 11 162.224 9.29102 162.224 5.87305C162.224 2.45052 160.629 0.739258 157.438 0.739258H153.487V11H157.438ZM170.025 0.739258H172.069V11H170.025V0.739258ZM184.334 11C182.875 11 181.656 10.5101 180.677 9.53027C179.697 8.5459 179.207 7.32682 179.207 5.87305C179.207 4.41471 179.697 3.19564 180.677 2.21582C181.656 1.236 182.875 0.746094 184.334 0.746094C185.792 0.746094 187.011 1.236 187.991 2.21582C188.971 3.19564 189.461 4.41471 189.461 5.87305C189.461 7.33138 188.971 8.55046 187.991 9.53027C187.011 10.5101 185.792 11 184.334 11ZM184.341 9.08594C185.248 9.08594 185.986 8.77832 186.555 8.16309C187.125 7.54785 187.41 6.78451 187.41 5.87305C187.41 4.96159 187.125 4.19824 186.555 3.58301C185.986 2.96777 185.243 2.66016 184.327 2.66016C183.42 2.66016 182.682 2.96777 182.112 3.58301C181.542 4.19824 181.258 4.96159 181.258 5.87305C181.258 6.78451 181.542 7.54785 182.112 8.16309C182.682 8.77832 183.425 9.08594 184.341 9.08594Z" fill="white"/>
</svg>
