<svg width="21" height="21" viewBox="0 0 21 21" fill="none" xmlns="http://www.w3.org/2000/svg">
<path id="Vector (Stroke)" fill-rule="evenodd" clip-rule="evenodd" d="M20.0746 0.716471C20.7271 1.37067 20.7257 2.42996 20.0715 3.08245L12.9658 10.1695L20.0372 17.2409C20.6905 17.8942 20.6905 18.9535 20.0372 19.6069C19.3838 20.2602 18.3245 20.2602 17.6712 19.6069L10.5967 12.5324L3.48794 19.6226C2.83374 20.2751 1.77445 20.2737 1.12196 19.6195C0.469469 18.9653 0.470857 17.906 1.12506 17.2535L8.23076 10.1664L1.10931 3.045C0.455966 2.39165 0.455966 1.33236 1.10931 0.679016C1.76266 0.0256686 2.82195 0.0256681 3.4753 0.679016L10.5998 7.80356L17.7086 0.713371C18.3628 0.0608791 19.4221 0.0622674 20.0746 0.716471Z" fill="#FF9522"/>
</svg>
